<svg  version="1.1" id="Layer_1" xmlns="http://www.w3.org/2000/svg" xmlns:xlink="http://www.w3.org/1999/xlink" x="0px" y="0px"
	 width="100%" viewBox="0 0 747 747" enable-background="new 0 0 747 747" xml:space="preserve">
<path fill="#FFFFFF" opacity="1.000000" stroke="none" 
	d="
M411.000000,748.000000 
	C274.000000,748.000000 137.500000,748.000000 1.000000,748.000000 
	C1.000000,499.000000 1.000000,250.000000 1.000000,1.000000 
	C250.000000,1.000000 499.000000,1.000000 748.000000,1.000000 
	C748.000000,250.000000 748.000000,499.000000 748.000000,748.000000 
	C635.833313,748.000000 523.666687,748.000000 411.000000,748.000000 
M352.942078,405.905670 
	C353.710266,406.161407 354.528137,406.320709 355.239471,406.686890 
	C378.031708,418.420563 401.058441,429.728516 423.519318,442.066467 
	C441.376099,451.875305 449.843689,468.363647 450.829407,488.260315 
	C451.544434,502.692596 446.881592,515.882690 438.020996,527.539917 
	C430.097961,537.963806 420.486725,546.540955 408.525543,551.550415 
	C394.906433,557.254272 380.708405,560.247620 365.486359,558.188354 
	C347.461548,555.750000 331.768066,548.707764 319.054352,536.173157 
	C311.491821,528.717163 305.808289,519.355408 298.656982,510.038849 
	C292.920715,510.624207 285.504486,508.837830 278.242096,511.077362 
	C278.947784,513.486755 279.329803,515.429077 280.071350,517.222778 
	C286.411163,532.557373 295.490082,545.856812 308.177856,556.800354 
	C324.559540,570.929871 343.459900,579.217529 364.818726,580.826843 
	C385.724335,582.401978 405.896118,579.217346 424.520752,568.310120 
	C437.057190,560.968384 447.827332,551.842041 456.186249,540.141724 
	C465.401642,527.242554 471.836456,512.936401 472.917358,496.884369 
	C474.004211,480.745087 471.143585,465.406281 463.126434,450.969238 
	C455.786835,437.752289 445.709106,427.357666 432.615753,420.414154 
	C404.017639,405.248444 375.057373,390.764771 346.220215,376.051117 
	C329.037109,367.283813 311.734283,358.747742 294.640808,349.810272 
	C289.319458,347.027985 284.167786,343.685608 279.528870,339.879913 
	C267.897644,330.337952 260.186310,317.912445 253.949692,304.322266 
	C249.373749,294.350861 247.029144,283.838867 246.199478,273.189911 
	C244.944275,257.079224 247.198013,241.286346 252.820953,225.893402 
	C258.493073,210.365829 266.693848,196.375137 277.546692,184.200256 
	C290.953461,169.160294 306.556274,156.742432 325.817474,149.588226 
	C342.158997,143.518478 358.919556,139.258896 376.387054,139.118744 
	C390.517181,139.005371 404.202209,142.343628 417.546661,146.885315 
	C441.426056,155.012451 460.732910,169.671753 476.489441,189.066666 
	C487.893433,203.104050 495.649445,219.065018 500.234406,236.627823 
	C500.711578,238.455734 503.864258,240.617126 505.937134,240.800873 
	C511.883575,241.327972 517.913086,240.918289 524.854919,240.963364 
	C569.842163,240.975311 614.829468,241.010193 659.816589,240.941483 
	C662.478882,240.937408 665.139893,240.100571 668.579712,239.519882 
	C663.881348,227.586411 659.432495,216.413605 655.102966,205.194794 
	C654.099854,202.595535 652.603638,201.597412 649.813293,202.138580 
	C634.636841,205.082077 619.449097,207.968384 604.252686,210.807465 
	C601.910095,211.245132 599.659546,211.435028 598.830444,208.113892 
	C598.368774,206.264374 597.042358,204.597198 595.963074,202.940720 
	C586.881287,189.001404 577.689880,175.132202 568.774231,161.087799 
	C567.830261,159.600861 567.570618,156.524399 568.476501,155.199081 
	C576.484314,143.484024 584.728455,131.925705 593.109680,120.472557 
	C597.958618,113.846451 598.354309,113.455696 592.277954,107.884315 
	C580.442993,97.032852 568.715820,85.997154 556.174011,76.004219 
	C546.169495,68.032944 535.022156,61.496105 524.660461,54.510212 
	C522.045837,56.449566 520.053772,57.479187 518.652527,59.039448 
	C509.806213,68.889511 501.015198,78.792068 492.379425,88.826591 
	C489.846008,91.770332 487.670929,92.538521 483.954102,90.622429 
	C478.242584,87.677994 472.262299,85.157280 466.199524,83.012306 
	C453.916809,78.666740 441.471436,74.781540 429.178986,70.462280 
	C427.533997,69.884277 425.310547,67.987015 425.176880,66.533188 
	C423.864868,52.261044 423.011505,37.947510 421.852081,23.660000 
	C421.566467,20.140701 420.663757,17.082951 415.879211,16.745855 
	C407.840240,16.179466 399.860107,14.313540 391.831848,14.151524 
	C371.949829,13.750287 352.003662,13.107884 332.334778,17.101761 
	C331.093231,17.353863 329.268616,18.854172 329.156158,19.925119 
	C327.622162,34.530594 326.045746,49.145149 325.175415,63.798790 
	C324.903107,68.383545 323.473785,70.161148 319.208466,71.082260 
	C313.421661,72.331947 307.629608,73.859222 302.106415,75.966255 
	C289.919556,80.615402 277.865875,85.621536 265.836121,90.668541 
	C262.983154,91.865479 261.257141,92.442482 258.714813,89.460327 
	C249.582733,78.748436 240.043259,68.375847 230.405762,58.111622 
	C228.986481,56.600063 225.517685,55.056427 224.172256,55.763531 
	C217.612579,59.211033 211.199799,63.071373 205.206390,67.433289 
	C194.937851,74.906570 184.660385,82.446297 175.071045,90.748596 
	C167.692184,97.137085 161.226532,104.616669 154.711258,111.928680 
	C153.687622,113.077499 153.719452,116.500076 154.683273,117.878189 
	C163.381104,130.314850 172.466095,142.480286 181.217560,154.880493 
	C182.181229,156.245941 182.684113,159.307892 181.852661,160.362320 
	C170.200790,175.138870 160.290497,191.014557 151.134750,207.411575 
	C150.455368,208.628296 148.226151,209.941208 146.969574,209.727432 
	C132.048019,207.188843 117.156128,204.462753 102.295998,201.581894 
	C94.979240,200.163422 91.282585,203.341522 91.438049,211.811890 
	C93.378265,211.811890 95.331924,211.869934 97.281113,211.801132 
	C103.399307,211.585220 109.845673,209.942535 115.576324,211.313263 
	C141.465118,217.505646 160.291138,232.011322 167.048477,259.009827 
	C168.840439,266.169617 169.549835,273.593079 171.013306,280.843597 
	C176.559402,308.320740 188.924179,332.545166 207.246460,353.554291 
	C220.319092,368.543976 236.482605,379.829376 254.086227,389.031952 
	C268.323090,396.474457 283.626343,400.174377 299.324493,403.255859 
	C316.941620,406.714020 334.552826,405.737000 352.942078,405.905670 
M226.927902,521.958984 
	C219.262314,521.972656 211.596710,521.997253 203.931122,521.998108 
	C166.602432,522.002258 129.273743,521.995422 91.945045,522.004944 
	C86.127777,522.006409 85.059822,523.335999 87.124008,528.836060 
	C89.181519,534.318237 91.489166,539.732361 94.128319,544.953308 
	C94.837524,546.356323 97.312119,547.969604 98.708038,547.753601 
	C113.828094,545.412842 128.888840,542.691833 143.980682,540.163513 
	C146.949188,539.666199 149.868164,539.363647 151.237747,543.314209 
	C152.240875,546.207764 153.742050,548.988708 155.384308,551.590698 
	C164.171188,565.512634 173.072128,579.362610 182.461365,594.063721 
	C181.486557,595.365234 179.554520,597.591064 178.025848,600.066040 
	C175.543747,604.084839 173.670532,608.515442 170.921432,612.325745 
	C165.904648,619.279114 160.044281,625.653564 155.409302,632.833435 
	C154.134949,634.807434 154.830826,639.872925 156.552612,641.652161 
	C164.775009,650.148682 173.237823,658.526978 182.422180,665.948608 
	C193.225266,674.678406 204.808838,682.451355 216.170364,690.474426 
	C218.792435,692.325989 221.744141,694.256348 224.795151,694.841431 
	C231.177017,696.065125 233.282562,689.838318 236.589615,686.415039 
	C244.450775,678.277649 251.561279,669.419250 259.155426,661.015076 
	C260.171204,659.890991 262.443085,658.898804 263.768158,659.244629 
	C267.813934,660.300598 271.786011,661.812683 275.593689,663.566406 
	C281.270660,666.180969 286.598145,669.648560 292.422211,671.820190 
	C297.234894,673.614563 302.657196,673.706238 307.615143,675.197937 
	C312.556458,676.684753 317.165924,679.261780 322.093903,680.810059 
	C325.257355,681.804016 326.038116,683.414429 326.078156,686.513184 
	C326.190155,695.181335 326.655365,703.845459 327.035187,712.508789 
	C327.077545,713.475281 327.595001,714.416321 327.672028,715.386658 
	C327.913269,718.424438 328.325012,721.486084 328.154938,724.509521 
	C327.949432,728.163452 331.188263,733.707458 334.346863,733.961304 
	C347.686615,735.032837 361.026245,736.632324 374.382812,736.817078 
	C387.156311,736.993774 399.955566,735.737488 412.733734,734.951904 
	C418.555634,734.593933 420.879272,731.835571 421.008636,725.938904 
	C421.093964,722.049683 421.031555,718.137329 421.443939,714.279053 
	C422.510742,704.296875 423.686829,694.321960 425.119873,684.387512 
	C425.364685,682.690613 426.754486,680.448914 428.214172,679.794128 
	C430.768158,678.648682 433.818329,678.665405 436.603516,677.967651 
	C441.783234,676.669861 447.058228,675.574768 452.042572,673.720703 
	C458.021362,671.496643 463.688904,668.450562 469.583862,665.981812 
	C474.050873,664.111084 479.116455,663.288635 483.089447,660.721130 
	C487.504944,657.867798 490.046967,659.400330 492.760651,662.508118 
	C501.124084,672.086243 509.394043,681.746582 517.818604,691.270386 
	C521.987793,695.983582 524.486877,696.420410 529.917053,692.960388 
	C537.782532,687.948608 545.630798,682.860107 553.091553,677.276672 
	C560.814575,671.496826 568.354004,665.399048 575.440979,658.862671 
	C582.141724,652.682617 588.235107,645.828979 594.367126,639.064453 
	C595.221619,638.121948 595.492554,635.513184 594.811340,634.487793 
	C585.814087,620.945251 576.597717,607.548340 567.167786,593.721619 
	C567.675049,592.852234 568.338989,591.540710 569.160278,590.336365 
	C573.236328,584.359436 577.628601,578.578491 581.391602,572.412415 
	C586.850830,563.466919 591.926819,554.284363 597.037903,545.131226 
	C598.813904,541.950623 600.438171,539.178589 604.906311,540.077942 
	C618.288635,542.771545 631.651489,545.639404 645.130676,547.742371 
	C652.328796,548.865417 655.207214,548.755005 657.095703,540.482910 
	C658.072327,536.205444 659.532959,532.038513 660.847290,527.576111 
	C652.989075,529.707031 645.821289,532.738953 637.401367,532.294006 
	C626.426208,531.714111 616.575684,528.843567 607.476562,523.127014 
	C593.987610,514.652588 584.951538,502.511047 582.186218,486.898956 
	C579.690674,472.809540 577.702087,458.635529 572.481873,445.283844 
	C569.323730,437.206146 564.918457,429.615234 561.059814,421.812439 
	C553.403870,406.331085 542.527649,393.208038 528.736633,383.201080 
	C517.324402,374.920227 504.685547,368.168243 492.084717,361.727722 
	C476.206970,353.612305 458.785736,349.800995 441.210480,348.250336 
	C424.866516,346.808350 408.341949,347.414062 391.118896,347.017853 
	C389.281616,346.417725 387.311218,346.069397 385.627380,345.179108 
	C365.444397,334.508057 345.104553,324.110168 325.223511,312.899963 
	C312.304779,305.615540 304.300934,293.583405 300.200806,279.680176 
	C296.229828,266.214935 296.599274,252.400070 301.924896,239.014557 
	C306.700226,227.012070 314.010529,217.020920 323.783783,208.503510 
	C333.200714,200.296677 343.954620,195.113098 355.838440,192.005600 
	C367.179016,189.040161 378.306763,188.613861 390.150085,191.164520 
	C404.957153,194.353485 418.098877,200.464355 428.547272,210.630600 
	C436.353851,218.226349 441.481049,228.558945 447.933746,237.578110 
	C449.147430,239.274475 450.892273,241.641174 452.552246,241.779816 
	C458.612183,242.285889 464.739960,241.979904 471.431458,241.979904 
	C470.879791,239.190933 470.688019,237.067841 470.033875,235.098343 
	C465.175354,220.470093 457.513641,207.393936 446.642151,196.530930 
	C438.196381,188.091751 428.621887,180.682678 417.413177,176.310028 
	C398.643860,168.987885 379.385193,165.738358 358.954956,168.763687 
	C339.649597,171.622452 323.033203,179.901489 308.805939,192.199036 
	C295.316650,203.858704 285.036682,218.477539 279.923767,236.123367 
	C275.269257,252.187134 273.853363,268.173065 278.934235,284.489929 
	C284.718048,303.064362 294.422455,318.871582 310.633453,329.940765 
	C317.690491,334.759460 325.558319,338.395630 333.082031,342.524933 
	C343.210815,348.083954 353.330292,353.661438 363.514038,359.118500 
	C374.119934,364.801788 384.847748,370.258545 395.431885,375.981384 
	C410.909912,384.350342 426.333740,392.820465 441.732269,401.335052 
	C459.839050,411.347198 475.856049,423.509705 486.575409,441.909973 
	C500.926727,466.544647 503.785736,492.420044 496.083832,519.514099 
	C488.762024,545.271118 473.492493,565.762024 452.455963,581.997986 
	C422.388885,605.203735 388.199280,612.924988 351.156097,606.691284 
	C336.310760,604.193115 322.048523,598.860107 308.750854,591.069397 
	C280.056366,574.258057 260.654022,550.221436 250.350601,518.717896 
	C247.505554,510.018921 247.568481,509.998047 238.241928,509.998505 
	C235.575317,509.998627 232.892090,509.814636 230.246460,510.050903 
	C227.177277,510.324890 225.343430,511.630402 226.594559,515.273865 
	C227.319824,517.385925 227.448318,519.702942 226.927902,521.958984 
M156.409698,355.103851 
	C154.742523,353.370117 153.071152,351.640381 151.408844,349.901947 
	C139.203568,337.137665 130.726593,321.970947 123.615593,306.015198 
	C120.973282,300.086304 116.219116,293.335876 125.718552,288.610321 
	C125.929810,288.505219 125.891983,287.978638 126.070328,287.716705 
	C132.308685,278.554626 133.462219,268.999786 129.061188,258.621582 
	C122.330292,242.749130 104.023232,236.881348 89.884651,244.251190 
	C78.095886,250.396149 72.517899,261.262299 74.145981,274.612793 
	C75.608940,286.609222 82.900612,294.488495 94.243454,298.780701 
	C96.082031,299.476471 98.194305,301.274445 98.827759,303.046387 
	C105.008995,320.337006 112.681686,336.962341 124.238670,351.222290 
	C133.721664,362.923218 143.572632,374.824982 155.272339,384.099915 
	C168.929596,394.926727 184.445343,403.582275 199.744781,412.122894 
	C221.364136,424.191467 243.534897,435.271057 265.450287,446.810791 
	C288.707825,459.057159 311.795013,471.641907 335.298004,483.396149 
	C340.691376,486.093445 341.758545,488.979858 342.205322,494.465912 
	C343.657562,512.298157 359.463654,527.148865 379.141144,521.349792 
	C392.569855,517.392212 400.095947,506.769623 399.980621,492.212524 
	C399.835266,473.862183 382.150360,457.949829 361.599640,465.829926 
	C357.608978,467.360168 354.242004,467.305664 350.278687,465.167755 
	C331.772308,455.185120 313.082336,445.541992 294.436584,435.818573 
	C267.691925,421.871674 241.080261,407.658234 214.124344,394.131500 
	C193.357635,383.710541 173.590683,372.020752 156.409698,355.103851 
M449.627502,308.927063 
	C480.271759,324.578949 510.850006,340.361938 541.581970,355.839722 
	C564.607788,367.436371 584.722656,382.532562 600.546509,403.050262 
	C610.086304,415.419800 617.343811,429.081482 623.104553,443.547058 
	C623.664124,444.952148 623.537354,447.031708 622.914246,448.436737 
	C620.307983,454.313019 616.436462,459.791779 614.776855,465.891846 
	C610.738892,480.733978 622.998047,497.405731 639.989929,499.050446 
	C649.487610,499.969788 657.083191,496.077515 663.454041,489.856995 
	C669.818604,483.642578 673.067627,475.556732 671.695801,466.663666 
	C669.691406,453.669342 661.969971,445.095459 649.339111,441.031647 
	C648.117493,440.638611 646.623657,439.772552 646.109436,438.712250 
	C642.506653,431.284332 639.310425,423.657135 635.638611,416.265289 
	C628.856140,402.611084 620.340637,390.059113 610.158936,378.725006 
	C595.292786,362.176239 577.740784,348.965088 558.101501,338.634521 
	C535.152771,326.563080 512.017395,314.846313 488.953003,302.995117 
	C475.720367,296.195831 462.465668,289.439545 449.225067,282.655762 
	C437.586182,276.692596 426.046295,270.524872 414.271149,264.844574 
	C409.621552,262.601593 405.019165,261.520782 405.883789,254.497528 
	C407.977264,237.492813 389.589630,222.881180 370.764832,227.545959 
	C359.603943,230.311630 349.367279,243.094345 349.706390,256.206207 
	C350.231720,276.519318 372.000763,290.080139 388.819305,281.237030 
	C391.115021,280.029938 395.163391,280.219879 397.550934,281.433655 
	C414.823212,290.214630 431.877014,299.425385 449.627502,308.927063 
M99.499054,420.999969 
	C87.951859,420.512939 76.408104,419.862305 64.855782,419.618591 
	C60.170982,419.519745 55.257816,419.566650 50.810436,420.825562 
	C35.296909,425.217133 26.349588,439.613708 31.165699,455.474335 
	C33.891766,464.451904 39.276035,472.088928 49.151768,474.456726 
	C54.212379,475.670074 59.592434,475.898010 64.833939,475.946899 
	C82.861702,476.114960 100.892036,476.008209 118.921387,476.004761 
	C122.943306,476.003967 127.055664,476.545563 130.971710,475.899628 
	C149.284286,472.879211 156.410629,460.602844 155.714188,446.446075 
	C154.868256,429.250610 141.803177,418.532318 124.246742,419.313354 
	C116.321259,419.665894 108.413872,420.425232 99.499054,420.999969 
M627.838379,281.002014 
	C625.983643,281.981079 624.169739,283.048676 622.267883,283.925507 
	C603.996399,292.349640 603.372437,321.177826 618.391113,332.032959 
	C627.635315,338.714417 637.487061,340.322266 647.551941,335.945068 
	C662.195312,329.576721 668.999329,313.320007 662.925903,297.740601 
	C657.823792,284.653076 641.540771,276.595245 627.838379,281.002014 
z"/>
<path fill="#CCCC99" opacity="1.000000" stroke="none" 
	d="
M391.896881,347.118286 
	C408.341949,347.414062 424.866516,346.808350 441.210480,348.250336 
	C458.785736,349.800995 476.206970,353.612305 492.084717,361.727722 
	C504.685547,368.168243 517.324402,374.920227 528.736633,383.201080 
	C542.527649,393.208038 553.403870,406.331085 561.059814,421.812439 
	C564.918457,429.615234 569.323730,437.206146 572.481873,445.283844 
	C577.702087,458.635529 579.690674,472.809540 582.186218,486.898956 
	C584.951538,502.511047 593.987610,514.652588 607.476562,523.127014 
	C616.575684,528.843567 626.426208,531.714111 637.401367,532.294006 
	C645.821289,532.738953 652.989075,529.707031 660.847290,527.576111 
	C659.532959,532.038513 658.072327,536.205444 657.095703,540.482910 
	C655.207214,548.755005 652.328796,548.865417 645.130676,547.742371 
	C631.651489,545.639404 618.288635,542.771545 604.906311,540.077942 
	C600.438171,539.178589 598.813904,541.950623 597.037903,545.131226 
	C591.926819,554.284363 586.850830,563.466919 581.391602,572.412415 
	C577.628601,578.578491 573.236328,584.359436 569.160278,590.336365 
	C568.338989,591.540710 567.675049,592.852234 567.167786,593.721619 
	C576.597717,607.548340 585.814087,620.945251 594.811340,634.487793 
	C595.492554,635.513184 595.221619,638.121948 594.367126,639.064453 
	C588.235107,645.828979 582.141724,652.682617 575.440979,658.862671 
	C568.354004,665.399048 560.814575,671.496826 553.091553,677.276672 
	C545.630798,682.860107 537.782532,687.948608 529.917053,692.960388 
	C524.486877,696.420410 521.987793,695.983582 517.818604,691.270386 
	C509.394043,681.746582 501.124084,672.086243 492.760651,662.508118 
	C490.046967,659.400330 487.504944,657.867798 483.089447,660.721130 
	C479.116455,663.288635 474.050873,664.111084 469.583862,665.981812 
	C463.688904,668.450562 458.021362,671.496643 452.042572,673.720703 
	C447.058228,675.574768 441.783234,676.669861 436.603516,677.967651 
	C433.818329,678.665405 430.768158,678.648682 428.214172,679.794128 
	C426.754486,680.448914 425.364685,682.690613 425.119873,684.387512 
	C423.686829,694.321960 422.510742,704.296875 421.443939,714.279053 
	C421.031555,718.137329 421.093964,722.049683 421.008636,725.938904 
	C420.879272,731.835571 418.555634,734.593933 412.733734,734.951904 
	C399.955566,735.737488 387.156311,736.993774 374.382812,736.817078 
	C361.026245,736.632324 347.686615,735.032837 334.346863,733.961304 
	C331.188263,733.707458 327.949432,728.163452 328.154938,724.509521 
	C328.325012,721.486084 327.913269,718.424438 327.672028,715.386658 
	C327.595001,714.416321 327.077545,713.475281 327.035187,712.508789 
	C326.655365,703.845459 326.190155,695.181335 326.078156,686.513184 
	C326.038116,683.414429 325.257355,681.804016 322.093903,680.810059 
	C317.165924,679.261780 312.556458,676.684753 307.615143,675.197937 
	C302.657196,673.706238 297.234894,673.614563 292.422211,671.820190 
	C286.598145,669.648560 281.270660,666.180969 275.593689,663.566406 
	C271.786011,661.812683 267.813934,660.300598 263.768158,659.244629 
	C262.443085,658.898804 260.171204,659.890991 259.155426,661.015076 
	C251.561279,669.419250 244.450775,678.277649 236.589615,686.415039 
	C233.282562,689.838318 231.177017,696.065125 224.795151,694.841431 
	C221.744141,694.256348 218.792435,692.325989 216.170364,690.474426 
	C204.808838,682.451355 193.225266,674.678406 182.422180,665.948608 
	C173.237823,658.526978 164.775009,650.148682 156.552612,641.652161 
	C154.830826,639.872925 154.134949,634.807434 155.409302,632.833435 
	C160.044281,625.653564 165.904648,619.279114 170.921432,612.325745 
	C173.670532,608.515442 175.543747,604.084839 178.025848,600.066040 
	C179.554520,597.591064 181.486557,595.365234 182.461365,594.063721 
	C173.072128,579.362610 164.171188,565.512634 155.384308,551.590698 
	C153.742050,548.988708 152.240875,546.207764 151.237747,543.314209 
	C149.868164,539.363647 146.949188,539.666199 143.980682,540.163513 
	C128.888840,542.691833 113.828094,545.412842 98.708038,547.753601 
	C97.312119,547.969604 94.837524,546.356323 94.128319,544.953308 
	C91.489166,539.732361 89.181519,534.318237 87.124008,528.836060 
	C85.059822,523.335999 86.127777,522.006409 91.945045,522.004944 
	C129.273743,521.995422 166.602432,522.002258 203.931122,521.998108 
	C211.596710,521.997253 219.262314,521.972656 227.596085,522.258057 
	C229.572449,525.947754 230.900543,529.330872 232.185623,532.730164 
	C241.615097,557.672729 256.449127,578.968567 277.029541,595.775940 
	C298.875854,613.617065 323.636200,625.369141 352.005920,629.375671 
	C378.151093,633.067993 403.377502,630.642090 427.873077,620.979065 
	C461.047638,607.892395 487.086426,586.248596 504.736816,555.124451 
	C519.277527,529.483704 525.798828,501.924408 520.720032,472.566040 
	C514.758972,438.108124 497.450623,410.005646 467.826904,391.448059 
	C444.085999,376.575684 418.619781,364.444977 393.787750,351.346893 
	C391.410034,350.092682 390.657959,349.388306 391.896881,347.118286 
z"/>
<path fill="#CCCC99" opacity="1.000000" stroke="none" 
	d="
M352.214264,405.762024 
	C334.552826,405.737000 316.941620,406.714020 299.324493,403.255859 
	C283.626343,400.174377 268.323090,396.474457 254.086227,389.031952 
	C236.482605,379.829376 220.319092,368.543976 207.246460,353.554291 
	C188.924179,332.545166 176.559402,308.320740 171.013306,280.843597 
	C169.549835,273.593079 168.840439,266.169617 167.048477,259.009827 
	C160.291138,232.011322 141.465118,217.505646 115.576324,211.313263 
	C109.845673,209.942535 103.399307,211.585220 97.281113,211.801132 
	C95.331924,211.869934 93.378265,211.811890 91.438049,211.811890 
	C91.282585,203.341522 94.979240,200.163422 102.295998,201.581894 
	C117.156128,204.462753 132.048019,207.188843 146.969574,209.727432 
	C148.226151,209.941208 150.455368,208.628296 151.134750,207.411575 
	C160.290497,191.014557 170.200790,175.138870 181.852661,160.362320 
	C182.684113,159.307892 182.181229,156.245941 181.217560,154.880493 
	C172.466095,142.480286 163.381104,130.314850 154.683273,117.878189 
	C153.719452,116.500076 153.687622,113.077499 154.711258,111.928680 
	C161.226532,104.616669 167.692184,97.137085 175.071045,90.748596 
	C184.660385,82.446297 194.937851,74.906570 205.206390,67.433289 
	C211.199799,63.071373 217.612579,59.211033 224.172256,55.763531 
	C225.517685,55.056427 228.986481,56.600063 230.405762,58.111622 
	C240.043259,68.375847 249.582733,78.748436 258.714813,89.460327 
	C261.257141,92.442482 262.983154,91.865479 265.836121,90.668541 
	C277.865875,85.621536 289.919556,80.615402 302.106415,75.966255 
	C307.629608,73.859222 313.421661,72.331947 319.208466,71.082260 
	C323.473785,70.161148 324.903107,68.383545 325.175415,63.798790 
	C326.045746,49.145149 327.622162,34.530594 329.156158,19.925119 
	C329.268616,18.854172 331.093231,17.353863 332.334778,17.101761 
	C352.003662,13.107884 371.949829,13.750287 391.831848,14.151524 
	C399.860107,14.313540 407.840240,16.179466 415.879211,16.745855 
	C420.663757,17.082951 421.566467,20.140701 421.852081,23.660000 
	C423.011505,37.947510 423.864868,52.261044 425.176880,66.533188 
	C425.310547,67.987015 427.533997,69.884277 429.178986,70.462280 
	C441.471436,74.781540 453.916809,78.666740 466.199524,83.012306 
	C472.262299,85.157280 478.242584,87.677994 483.954102,90.622429 
	C487.670929,92.538521 489.846008,91.770332 492.379425,88.826591 
	C501.015198,78.792068 509.806213,68.889511 518.652527,59.039448 
	C520.053772,57.479187 522.045837,56.449566 524.660461,54.510212 
	C535.022156,61.496105 546.169495,68.032944 556.174011,76.004219 
	C568.715820,85.997154 580.442993,97.032852 592.277954,107.884315 
	C598.354309,113.455696 597.958618,113.846451 593.109680,120.472557 
	C584.728455,131.925705 576.484314,143.484024 568.476501,155.199081 
	C567.570618,156.524399 567.830261,159.600861 568.774231,161.087799 
	C577.689880,175.132202 586.881287,189.001404 595.963074,202.940720 
	C597.042358,204.597198 598.368774,206.264374 598.830444,208.113892 
	C599.659546,211.435028 601.910095,211.245132 604.252686,210.807465 
	C619.449097,207.968384 634.636841,205.082077 649.813293,202.138580 
	C652.603638,201.597412 654.099854,202.595535 655.102966,205.194794 
	C659.432495,216.413605 663.881348,227.586411 668.579712,239.519882 
	C665.139893,240.100571 662.478882,240.937408 659.816589,240.941483 
	C614.829468,241.010193 569.842163,240.975311 524.389771,240.525253 
	C523.309692,237.683945 522.693604,235.281006 522.079956,232.877487 
	C513.961914,201.082504 497.236176,174.627258 472.071625,153.694855 
	C440.048309,127.057198 403.412323,115.139503 361.528107,118.701027 
	C330.167206,121.367729 302.937073,133.427490 278.891968,152.794525 
	C257.274933,170.205933 241.447205,192.005142 232.463272,218.723694 
	C224.089890,243.626404 221.483841,268.786011 227.792938,294.282623 
	C236.330582,328.785370 255.667953,355.296387 288.006744,371.501831 
	C308.242920,381.642456 328.406708,391.928162 348.550385,402.251312 
	C349.992615,402.990417 351.003082,404.572083 352.214264,405.762024 
z"/>
<path fill="#CC6734" opacity="1.000000" stroke="none" 
	d="
M352.578186,405.833862 
	C351.003082,404.572083 349.992615,402.990417 348.550385,402.251312 
	C328.406708,391.928162 308.242920,381.642456 288.006744,371.501831 
	C255.667953,355.296387 236.330582,328.785370 227.792938,294.282623 
	C221.483841,268.786011 224.089890,243.626404 232.463272,218.723694 
	C241.447205,192.005142 257.274933,170.205933 278.891968,152.794525 
	C302.937073,133.427490 330.167206,121.367729 361.528107,118.701027 
	C403.412323,115.139503 440.048309,127.057198 472.071625,153.694855 
	C497.236176,174.627258 513.961914,201.082504 522.079956,232.877487 
	C522.693604,235.281006 523.309692,237.683945 523.917297,240.481995 
	C517.913086,240.918289 511.883575,241.327972 505.937134,240.800873 
	C503.864258,240.617126 500.711578,238.455734 500.234406,236.627823 
	C495.649445,219.065018 487.893433,203.104050 476.489441,189.066666 
	C460.732910,169.671753 441.426056,155.012451 417.546661,146.885315 
	C404.202209,142.343628 390.517181,139.005371 376.387054,139.118744 
	C358.919556,139.258896 342.158997,143.518478 325.817474,149.588226 
	C306.556274,156.742432 290.953461,169.160294 277.546692,184.200256 
	C266.693848,196.375137 258.493073,210.365829 252.820953,225.893402 
	C247.198013,241.286346 244.944275,257.079224 246.199478,273.189911 
	C247.029144,283.838867 249.373749,294.350861 253.949692,304.322266 
	C260.186310,317.912445 267.897644,330.337952 279.528870,339.879913 
	C284.167786,343.685608 289.319458,347.027985 294.640808,349.810272 
	C311.734283,358.747742 329.037109,367.283813 346.220215,376.051117 
	C375.057373,390.764771 404.017639,405.248444 432.615753,420.414154 
	C445.709106,427.357666 455.786835,437.752289 463.126434,450.969238 
	C471.143585,465.406281 474.004211,480.745087 472.917358,496.884369 
	C471.836456,512.936401 465.401642,527.242554 456.186249,540.141724 
	C447.827332,551.842041 437.057190,560.968384 424.520752,568.310120 
	C405.896118,579.217346 385.724335,582.401978 364.818726,580.826843 
	C343.459900,579.217529 324.559540,570.929871 308.177856,556.800354 
	C295.490082,545.856812 286.411163,532.557373 280.071350,517.222778 
	C279.329803,515.429077 278.947784,513.486755 278.242096,511.077362 
	C285.504486,508.837830 292.920715,510.624207 298.656982,510.038849 
	C305.808289,519.355408 311.491821,528.717163 319.054352,536.173157 
	C331.768066,548.707764 347.461548,555.750000 365.486359,558.188354 
	C380.708405,560.247620 394.906433,557.254272 408.525543,551.550415 
	C420.486725,546.540955 430.097961,537.963806 438.020996,527.539917 
	C446.881592,515.882690 451.544434,502.692596 450.829407,488.260315 
	C449.843689,468.363647 441.376099,451.875305 423.519318,442.066467 
	C401.058441,429.728516 378.031708,418.420563 355.239471,406.686890 
	C354.528137,406.320709 353.710266,406.161407 352.578186,405.833862 
z"/>
<path fill="#CC6734" opacity="1.000000" stroke="none" 
	d="
M391.507874,347.068054 
	C390.657959,349.388306 391.410034,350.092682 393.787750,351.346893 
	C418.619781,364.444977 444.085999,376.575684 467.826904,391.448059 
	C497.450623,410.005646 514.758972,438.108124 520.720032,472.566040 
	C525.798828,501.924408 519.277527,529.483704 504.736816,555.124451 
	C487.086426,586.248596 461.047638,607.892395 427.873077,620.979065 
	C403.377502,630.642090 378.151093,633.067993 352.005920,629.375671 
	C323.636200,625.369141 298.875854,613.617065 277.029541,595.775940 
	C256.449127,578.968567 241.615097,557.672729 232.185623,532.730164 
	C230.900543,529.330872 229.572449,525.947754 228.054810,522.242432 
	C227.448318,519.702942 227.319824,517.385925 226.594559,515.273865 
	C225.343430,511.630402 227.177277,510.324890 230.246460,510.050903 
	C232.892090,509.814636 235.575317,509.998627 238.241928,509.998505 
	C247.568481,509.998047 247.505554,510.018921 250.350601,518.717896 
	C260.654022,550.221436 280.056366,574.258057 308.750854,591.069397 
	C322.048523,598.860107 336.310760,604.193115 351.156097,606.691284 
	C388.199280,612.924988 422.388885,605.203735 452.455963,581.997986 
	C473.492493,565.762024 488.762024,545.271118 496.083832,519.514099 
	C503.785736,492.420044 500.926727,466.544647 486.575409,441.909973 
	C475.856049,423.509705 459.839050,411.347198 441.732269,401.335052 
	C426.333740,392.820465 410.909912,384.350342 395.431885,375.981384 
	C384.847748,370.258545 374.119934,364.801788 363.514038,359.118500 
	C353.330292,353.661438 343.210815,348.083954 333.082031,342.524933 
	C325.558319,338.395630 317.690491,334.759460 310.633453,329.940765 
	C294.422455,318.871582 284.718048,303.064362 278.934235,284.489929 
	C273.853363,268.173065 275.269257,252.187134 279.923767,236.123367 
	C285.036682,218.477539 295.316650,203.858704 308.805939,192.199036 
	C323.033203,179.901489 339.649597,171.622452 358.954956,168.763687 
	C379.385193,165.738358 398.643860,168.987885 417.413177,176.310028 
	C428.621887,180.682678 438.196381,188.091751 446.642151,196.530930 
	C457.513641,207.393936 465.175354,220.470093 470.033875,235.098343 
	C470.688019,237.067841 470.879791,239.190933 471.431458,241.979904 
	C464.739960,241.979904 458.612183,242.285889 452.552246,241.779816 
	C450.892273,241.641174 449.147430,239.274475 447.933746,237.578110 
	C441.481049,228.558945 436.353851,218.226349 428.547272,210.630600 
	C418.098877,200.464355 404.957153,194.353485 390.150085,191.164520 
	C378.306763,188.613861 367.179016,189.040161 355.838440,192.005600 
	C343.954620,195.113098 333.200714,200.296677 323.783783,208.503510 
	C314.010529,217.020920 306.700226,227.012070 301.924896,239.014557 
	C296.599274,252.400070 296.229828,266.214935 300.200806,279.680176 
	C304.300934,293.583405 312.304779,305.615540 325.223511,312.899963 
	C345.104553,324.110168 365.444397,334.508057 385.627380,345.179108 
	C387.311218,346.069397 389.281616,346.417725 391.507874,347.068054 
z"/>
<path fill="#CC6633" opacity="1.000000" stroke="none" 
	d="
M156.658829,355.368347 
	C173.590683,372.020752 193.357635,383.710541 214.124344,394.131500 
	C241.080261,407.658234 267.691925,421.871674 294.436584,435.818573 
	C313.082336,445.541992 331.772308,455.185120 350.278687,465.167755 
	C354.242004,467.305664 357.608978,467.360168 361.599640,465.829926 
	C382.150360,457.949829 399.835266,473.862183 399.980621,492.212524 
	C400.095947,506.769623 392.569855,517.392212 379.141144,521.349792 
	C359.463654,527.148865 343.657562,512.298157 342.205322,494.465912 
	C341.758545,488.979858 340.691376,486.093445 335.298004,483.396149 
	C311.795013,471.641907 288.707825,459.057159 265.450287,446.810791 
	C243.534897,435.271057 221.364136,424.191467 199.744781,412.122894 
	C184.445343,403.582275 168.929596,394.926727 155.272339,384.099915 
	C143.572632,374.824982 133.721664,362.923218 124.238670,351.222290 
	C112.681686,336.962341 105.008995,320.337006 98.827759,303.046387 
	C98.194305,301.274445 96.082031,299.476471 94.243454,298.780701 
	C82.900612,294.488495 75.608940,286.609222 74.145981,274.612793 
	C72.517899,261.262299 78.095886,250.396149 89.884651,244.251190 
	C104.023232,236.881348 122.330292,242.749130 129.061188,258.621582 
	C133.462219,268.999786 132.308685,278.554626 126.070328,287.716705 
	C125.891983,287.978638 125.929810,288.505219 125.718552,288.610321 
	C116.219116,293.335876 120.973282,300.086304 123.615593,306.015198 
	C130.726593,321.970947 139.203568,337.137665 151.408844,349.901947 
	C153.071152,351.640381 154.742523,353.370117 156.658829,355.368347 
M101.687881,255.000031 
	C99.332573,255.934525 96.892593,256.700745 94.638000,257.835388 
	C88.137741,261.106598 86.415573,266.964325 87.086624,273.556946 
	C87.683067,279.416473 91.465698,283.510406 96.654922,285.738617 
	C103.452896,288.657654 109.221764,286.548401 114.352356,281.278320 
	C119.197845,276.301086 120.125191,270.868225 117.817192,264.626740 
	C115.844589,259.292297 109.209831,255.169876 101.687881,255.000031 
M370.026947,477.473999 
	C369.570068,477.640381 369.125885,477.875122 368.654358,477.962769 
	C362.207214,479.161224 356.930908,483.936829 356.028717,489.416168 
	C354.810760,496.813293 357.824707,503.277222 363.994354,506.499481 
	C369.739319,509.499939 377.850647,508.508148 382.340210,504.138062 
	C387.201080,499.406494 388.196838,493.700012 385.966125,487.460754 
	C383.436462,480.385437 377.649933,477.856354 370.026947,477.473999 
z"/>
<path fill="#CC6633" opacity="1.000000" stroke="none" 
	d="
M449.313751,308.713531 
	C431.877014,299.425385 414.823212,290.214630 397.550934,281.433655 
	C395.163391,280.219879 391.115021,280.029938 388.819305,281.237030 
	C372.000763,290.080139 350.231720,276.519318 349.706390,256.206207 
	C349.367279,243.094345 359.603943,230.311630 370.764832,227.545959 
	C389.589630,222.881180 407.977264,237.492813 405.883789,254.497528 
	C405.019165,261.520782 409.621552,262.601593 414.271149,264.844574 
	C426.046295,270.524872 437.586182,276.692596 449.225067,282.655762 
	C462.465668,289.439545 475.720367,296.195831 488.953003,302.995117 
	C512.017395,314.846313 535.152771,326.563080 558.101501,338.634521 
	C577.740784,348.965088 595.292786,362.176239 610.158936,378.725006 
	C620.340637,390.059113 628.856140,402.611084 635.638611,416.265289 
	C639.310425,423.657135 642.506653,431.284332 646.109436,438.712250 
	C646.623657,439.772552 648.117493,440.638611 649.339111,441.031647 
	C661.969971,445.095459 669.691406,453.669342 671.695801,466.663666 
	C673.067627,475.556732 669.818604,483.642578 663.454041,489.856995 
	C657.083191,496.077515 649.487610,499.969788 639.989929,499.050446 
	C622.998047,497.405731 610.738892,480.733978 614.776855,465.891846 
	C616.436462,459.791779 620.307983,454.313019 622.914246,448.436737 
	C623.537354,447.031708 623.664124,444.952148 623.104553,443.547058 
	C617.343811,429.081482 610.086304,415.419800 600.546509,403.050262 
	C584.722656,382.532562 564.607788,367.436371 541.581970,355.839722 
	C510.850006,340.361938 480.271759,324.578949 449.313751,308.713531 
M630.973022,480.463409 
	C635.356018,484.591431 640.351685,486.769043 646.417786,484.967438 
	C653.276123,482.930573 657.478271,478.369141 658.882019,471.305908 
	C659.680176,467.289459 655.995178,459.690857 651.938965,456.984436 
	C644.963135,452.329926 636.955566,452.859100 631.650024,458.979675 
	C626.995483,464.349182 624.407654,472.087616 630.973022,480.463409 
M384.360596,240.887085 
	C380.016541,236.409042 375.733032,239.930145 371.649719,241.247574 
	C365.947052,243.087479 360.941376,252.346954 362.241730,257.567719 
	C364.899384,268.237610 373.707520,271.765717 379.658295,270.917969 
	C386.497620,269.943634 393.486053,263.420868 393.793427,256.704529 
	C394.093536,250.146713 390.941742,244.736954 384.360596,240.887085 
z"/>
<path fill="#CC6633" opacity="1.000000" stroke="none" 
	d="
M99.998665,421.000000 
	C108.413872,420.425232 116.321259,419.665894 124.246742,419.313354 
	C141.803177,418.532318 154.868256,429.250610 155.714188,446.446075 
	C156.410629,460.602844 149.284286,472.879211 130.971710,475.899628 
	C127.055664,476.545563 122.943306,476.003967 118.921387,476.004761 
	C100.892036,476.008209 82.861702,476.114960 64.833939,475.946899 
	C59.592434,475.898010 54.212379,475.670074 49.151768,474.456726 
	C39.276035,472.088928 33.891766,464.451904 31.165699,455.474335 
	C26.349588,439.613708 35.296909,425.217133 50.810436,420.825562 
	C55.257816,419.566650 60.170982,419.519745 64.855782,419.618591 
	C76.408104,419.862305 87.951859,420.512939 99.998665,421.000000 
M65.812851,433.338593 
	C65.166840,433.200714 64.505531,433.112213 63.877151,432.917450 
	C56.086048,430.502472 49.165642,433.623993 44.888214,441.498383 
	C41.444546,447.837891 43.004940,455.579407 48.640972,460.116852 
	C54.233906,464.619568 64.816284,465.342163 69.194130,459.816986 
	C74.076347,453.655243 79.760246,453.821075 86.174370,453.963501 
	C93.336784,454.122589 100.517685,453.768585 107.663712,454.145874 
	C109.722198,454.254608 112.314720,455.625214 113.593521,457.255615 
	C121.179878,466.927673 135.015701,466.205139 140.810059,455.294739 
	C145.533432,446.400970 143.126175,439.322296 133.689804,433.352203 
	C127.796577,429.623779 116.886879,433.253693 112.785461,439.300690 
	C111.569687,441.093231 108.795410,442.726929 106.654892,442.834595 
	C98.509636,443.244202 90.330238,442.915253 82.166214,443.037323 
	C78.339844,443.094543 75.322952,442.492401 72.996925,438.786804 
	C71.637260,436.620758 68.663925,435.467621 65.812851,433.338593 
z"/>
<path fill="#CC6633" opacity="1.000000" stroke="none" 
	d="
M628.261597,280.989197 
	C641.540771,276.595245 657.823792,284.653076 662.925903,297.740601 
	C668.999329,313.320007 662.195312,329.576721 647.551941,335.945068 
	C637.487061,340.322266 627.635315,338.714417 618.391113,332.032959 
	C603.372437,321.177826 603.996399,292.349640 622.267883,283.925507 
	C624.169739,283.048676 625.983643,281.981079 628.261597,280.989197 
M644.885803,296.356812 
	C634.132507,289.217438 623.504944,296.683075 621.341553,305.112152 
	C619.386963,312.727905 623.646118,321.073822 631.240906,323.687500 
	C638.851929,326.306824 646.997742,322.830383 650.100952,315.507111 
	C652.824158,309.080811 653.279968,303.825653 644.885803,296.356812 
z"/>
<path fill="#FFFFFF" opacity="1.000000" stroke="none" 
	d="
M102.116119,255.000015 
	C109.209831,255.169876 115.844589,259.292297 117.817192,264.626740 
	C120.125191,270.868225 119.197845,276.301086 114.352356,281.278320 
	C109.221764,286.548401 103.452896,288.657654 96.654922,285.738617 
	C91.465698,283.510406 87.683067,279.416473 87.086624,273.556946 
	C86.415573,266.964325 88.137741,261.106598 94.638000,257.835388 
	C96.892593,256.700745 99.332573,255.934525 102.116119,255.000015 
z"/>
<path fill="#FFFFFF" opacity="1.000000" stroke="none" 
	d="
M370.385010,477.277588 
	C377.649933,477.856354 383.436462,480.385437 385.966125,487.460754 
	C388.196838,493.700012 387.201080,499.406494 382.340210,504.138062 
	C377.850647,508.508148 369.739319,509.499939 363.994354,506.499481 
	C357.824707,503.277222 354.810760,496.813293 356.028717,489.416168 
	C356.930908,483.936829 362.207214,479.161224 368.654358,477.962769 
	C369.125885,477.875122 369.570068,477.640381 370.385010,477.277588 
z"/>
<path fill="#FFFFFF" opacity="1.000000" stroke="none" 
	d="
M630.697327,480.201202 
	C624.407654,472.087616 626.995483,464.349182 631.650024,458.979675 
	C636.955566,452.859100 644.963135,452.329926 651.938965,456.984436 
	C655.995178,459.690857 659.680176,467.289459 658.882019,471.305908 
	C657.478271,478.369141 653.276123,482.930573 646.417786,484.967438 
	C640.351685,486.769043 635.356018,484.591431 630.697327,480.201202 
z"/>
<path fill="#FFFFFF" opacity="1.000000" stroke="none" 
	d="
M384.648743,241.142639 
	C390.941742,244.736954 394.093536,250.146713 393.793427,256.704529 
	C393.486053,263.420868 386.497620,269.943634 379.658295,270.917969 
	C373.707520,271.765717 364.899384,268.237610 362.241730,257.567719 
	C360.941376,252.346954 365.947052,243.087479 371.649719,241.247574 
	C375.733032,239.930145 380.016541,236.409042 384.648743,241.142639 
z"/>
<path fill="#FFFFFF" opacity="1.000000" stroke="none" 
	d="
M66.114700,433.598694 
	C68.663925,435.467621 71.637260,436.620758 72.996925,438.786804 
	C75.322952,442.492401 78.339844,443.094543 82.166214,443.037323 
	C90.330238,442.915253 98.509636,443.244202 106.654892,442.834595 
	C108.795410,442.726929 111.569687,441.093231 112.785461,439.300690 
	C116.886879,433.253693 127.796577,429.623779 133.689804,433.352203 
	C143.126175,439.322296 145.533432,446.400970 140.810059,455.294739 
	C135.015701,466.205139 121.179878,466.927673 113.593521,457.255615 
	C112.314720,455.625214 109.722198,454.254608 107.663712,454.145874 
	C100.517685,453.768585 93.336784,454.122589 86.174370,453.963501 
	C79.760246,453.821075 74.076347,453.655243 69.194130,459.816986 
	C64.816284,465.342163 54.233906,464.619568 48.640972,460.116852 
	C43.004940,455.579407 41.444546,447.837891 44.888214,441.498383 
	C49.165642,433.623993 56.086048,430.502472 63.877151,432.917450 
	C64.505531,433.112213 65.166840,433.200714 66.114700,433.598694 
z"/>
<path fill="#FFFFFF" opacity="1.000000" stroke="none" 
	d="
M645.139832,296.637695 
	C653.279968,303.825653 652.824158,309.080811 650.100952,315.507111 
	C646.997742,322.830383 638.851929,326.306824 631.240906,323.687500 
	C623.646118,321.073822 619.386963,312.727905 621.341553,305.112152 
	C623.504944,296.683075 634.132507,289.217438 645.139832,296.637695 
z"/>
</svg>