<svg version="1.1" id="Layer_1" xmlns="http://www.w3.org/2000/svg" xmlns:xlink="http://www.w3.org/1999/xlink" x="0px" y="0px"
	 width="100%" viewBox="0 0 225 225" enable-background="new 0 0 225 225" xml:space="preserve">
<path fill="#FFFFFF" opacity="1.000000" stroke="none" 
	d="
M1.000000,81.000000 
	C1.000000,54.000004 1.000000,27.500010 1.000000,1.000011 
	C75.999977,1.000007 150.999954,1.000007 225.999954,1.000004 
	C225.999969,75.999969 225.999969,150.999939 225.999985,225.999939 
	C151.000046,225.999954 76.000092,225.999954 1.000067,225.999969 
	C1.000000,177.833328 1.000000,129.666672 1.000000,81.000000 
M73.001030,51.000835 
	C73.001030,51.000835 72.966446,51.025921 72.891388,50.496319 
	C72.597260,50.316113 72.303131,50.135906 71.877777,49.531509 
	C71.877777,49.531509 71.705635,49.122215 71.867363,48.317696 
	C71.555328,47.240314 71.228127,46.167057 70.933876,45.084839 
	C69.647049,40.352081 68.369789,35.616730 66.833855,30.289673 
	C65.584999,29.110510 64.336151,27.931347 63.490040,26.142124 
	C64.948563,22.019258 66.407082,17.896393 68.106133,13.093619 
	C63.163948,16.317186 58.480202,19.135965 54.109989,22.377455 
	C52.915604,23.263355 52.662731,25.418612 51.443371,27.189810 
	C50.951969,27.756031 50.460571,28.322250 49.485031,29.094772 
	C49.294388,29.380945 49.103745,29.667120 48.992054,29.939436 
	C48.992054,29.939436 48.925919,29.894146 48.203781,29.924213 
	C47.817074,30.617842 47.430370,31.311468 47.013519,32.444309 
	C47.013519,32.444309 46.956455,32.880844 46.233826,32.929478 
	C45.844936,33.621040 45.456047,34.312599 45.038612,35.464886 
	C45.038612,35.464886 44.969677,35.921318 44.350319,36.237862 
	C43.529758,38.132717 42.709198,40.027569 41.951782,42.007835 
	C41.951782,42.007835 41.922119,41.905888 41.239483,42.189564 
	C40.546955,45.124985 39.854431,48.060406 39.035755,51.746529 
	C36.775616,60.403236 37.559086,69.182510 39.275505,77.664314 
	C41.099796,86.679161 46.497971,93.661308 54.693928,98.433739 
	C65.595833,104.781815 76.243408,111.565369 87.110420,117.975037 
	C96.969673,123.790291 106.976532,129.355286 117.262428,135.635803 
	C120.489609,137.554352 123.704422,139.494080 126.946434,141.387222 
	C134.675171,145.900391 142.416748,150.391556 150.744827,155.193558 
	C154.882706,160.492126 159.020584,165.790695 163.054550,171.858521 
	C160.741608,173.201447 158.428650,174.544388 156.084381,175.956558 
	C156.084381,175.956558 156.160278,175.954041 155.957169,175.462708 
	C155.654312,175.358292 155.351456,175.253876 154.402023,174.854553 
	C152.603760,173.284134 150.805496,171.713715 148.266983,169.998581 
	C146.187363,169.298035 144.107742,168.597473 141.702347,167.253845 
	C138.145645,164.744110 135.547287,167.086060 132.120209,168.979431 
	C121.871651,174.530151 111.152016,174.971527 99.732994,171.309860 
	C95.228333,168.839691 90.723671,166.369522 85.863579,163.298309 
	C84.783607,162.572693 83.555405,161.996765 82.647339,161.097565 
	C75.977097,154.492279 71.732994,146.383636 68.327843,137.758026 
	C67.808739,136.443085 67.340187,134.681183 66.297363,134.077301 
	C62.651779,131.966187 58.860329,130.031357 54.946468,128.477417 
	C49.489830,126.310951 41.017139,129.054169 37.620808,133.725922 
	C32.810699,140.342361 34.499115,155.026321 40.926640,162.797379 
	C41.944027,165.194229 42.961418,167.591080 43.247540,169.976059 
	C41.135342,172.564438 39.023144,175.152832 36.276264,178.114792 
	C34.592609,181.109375 35.100140,183.623749 37.529896,186.106537 
	C42.999851,191.695831 48.410439,197.352402 53.624424,203.179153 
	C56.239468,206.101501 58.829643,205.985397 61.563709,203.894516 
	C63.885548,202.118866 65.948990,200.005341 68.903496,198.019669 
	C69.933586,197.972321 70.963684,197.924988 72.630981,198.218277 
	C77.732933,200.533997 82.834885,202.849716 88.362221,205.771255 
	C94.493347,206.717056 95.723503,208.091064 95.960396,214.257965 
	C96.282349,222.639206 96.975853,223.737640 102.749161,224.258255 
	C111.206367,224.131134 119.664948,224.048004 128.117966,223.785675 
	C128.732910,223.766571 129.676895,222.518906 129.832565,221.718826 
	C130.326569,219.179871 130.519455,216.582352 130.961533,213.217789 
	C130.290085,209.601089 132.609558,207.650146 135.569427,205.800888 
	C135.840073,205.608841 136.012039,205.350952 136.011917,205.022766 
	C136.011917,205.022766 136.025543,205.095001 136.800751,205.017822 
	C139.536819,203.955460 142.272888,202.893097 145.700623,201.768112 
	C147.813263,200.552444 149.925903,199.336761 152.803467,198.015930 
	C155.208878,197.962814 157.614304,197.909714 160.716736,197.996033 
	C162.128342,198.640472 163.539932,199.284897 164.831863,200.580917 
	C164.609314,201.393692 164.386765,202.206467 164.023422,203.729919 
	C163.604446,205.418732 163.185455,207.107529 162.766464,208.796341 
	C164.362061,208.163315 165.968002,207.554565 167.546616,206.881683 
	C167.989273,206.692978 168.342743,206.302597 168.751999,206.026794 
	C180.128891,198.359940 187.505417,188.272812 188.757858,173.638504 
	C189.146896,172.931107 189.847763,172.237137 189.878845,171.514359 
	C190.474518,157.663101 190.531921,143.925339 179.830933,132.240036 
	C168.243958,124.651199 156.668076,117.045128 145.016876,109.556206 
	C144.665146,109.330116 143.526642,110.328110 142.150299,110.547379 
	C134.776627,105.490715 127.550842,100.200150 119.998856,95.425522 
	C103.703880,85.123268 87.241402,75.085945 70.948730,64.195358 
	C74.339363,62.220322 77.730003,60.245289 81.360817,58.130352 
	C78.847084,56.555748 76.837776,55.297112 74.946579,53.416153 
	C74.605728,52.978371 74.264877,52.540588 73.977432,52.019474 
	C73.977432,52.019474 73.887787,52.061428 73.862305,51.529312 
	C73.566437,51.364552 73.270561,51.199795 73.001030,51.000835 
M192.456161,84.869644 
	C192.760773,84.678650 192.863831,84.410316 192.847488,83.282692 
	C189.923965,75.851402 187.000443,68.420113 183.878036,60.542492 
	C183.878036,60.542492 183.732498,60.076046 183.944077,59.348194 
	C185.825165,56.581413 187.484314,53.624699 189.646408,51.098389 
	C192.070496,48.265919 192.543732,45.711197 189.703812,43.096226 
	C186.286545,39.949665 182.744995,36.938091 179.339279,33.732330 
	C179.339279,33.732330 179.279556,33.585400 179.274170,32.894077 
	C177.361908,30.608658 175.507523,28.271601 173.524277,26.049524 
	C170.285782,22.420977 167.421677,22.950966 164.558594,27.254982 
	C164.397522,27.543621 164.236450,27.832262 163.337326,28.017410 
	C162.223404,29.024725 161.109482,30.032040 159.343674,31.134066 
	C157.242035,31.151499 155.140411,31.168932 152.422333,30.842661 
	C148.995071,28.808878 145.567795,26.775095 141.661514,24.155243 
	C140.104568,23.769205 138.549301,23.069149 136.990356,23.060867 
	C133.474396,23.042187 132.005768,21.275021 131.658554,17.217627 
	C131.427505,15.611382 131.046295,14.010213 130.991776,12.397999 
	C130.773972,5.956020 130.322678,4.861055 123.748299,4.510971 
	C115.693016,4.082028 107.585686,4.642980 99.500580,4.755232 
	C96.395103,4.798349 98.043007,6.703813 97.992325,8.826205 
	C97.642426,11.846014 97.292519,14.865823 96.352470,18.238253 
	C93.849167,20.945810 90.685928,23.293152 88.972664,26.431942 
	C84.710670,34.240105 85.181831,42.686405 87.050453,51.922470 
	C87.340775,54.429729 86.778122,56.339947 83.935646,57.017704 
	C83.224937,57.187160 82.678825,58.046883 82.057060,58.589355 
	C82.740433,59.088940 83.371162,59.691978 84.115906,60.070957 
	C88.276955,62.188400 91.824692,60.894310 95.819649,57.932388 
	C99.532745,56.926594 103.195877,55.613693 106.972649,54.999252 
	C110.945381,54.352917 115.026833,54.374748 119.783989,54.025356 
	C120.509911,54.054031 121.235825,54.082703 122.257080,54.633736 
	C122.834862,54.764980 123.412636,54.896229 124.381142,55.641434 
	C127.901299,57.137272 131.421448,58.633110 135.299210,60.707577 
	C146.102127,66.329582 152.328018,75.729637 157.022598,86.545647 
	C158.607422,90.196960 161.818634,92.165520 166.250778,92.570030 
	C167.497894,93.317314 168.745026,94.064590 170.890411,94.930168 
	C174.291397,94.655823 177.692383,94.381477 181.834213,94.046005 
	C183.940582,92.762894 186.046967,91.479782 188.174911,90.147995 
	C188.174911,90.147995 188.185455,90.095795 188.744751,89.769852 
	C189.847809,88.195206 190.950851,86.620560 192.014496,84.994530 
	C192.014496,84.994530 192.032745,85.055992 192.456161,84.869644 
z"/>
<path fill="#79BCC0" opacity="1.000000" stroke="none" 
	d="
M116.918312,135.030609 
	C106.976532,129.355286 96.969673,123.790291 87.110420,117.975037 
	C76.243408,111.565369 65.595833,104.781815 54.693928,98.433739 
	C46.497971,93.661308 41.099796,86.679161 39.275505,77.664314 
	C37.559086,69.182510 36.775616,60.403236 39.455902,51.284225 
	C40.558075,47.849915 41.240097,44.877899 41.922119,41.905888 
	C41.922119,41.905888 41.951782,42.007835 42.291443,41.938713 
	C43.410629,39.886837 44.190155,37.904076 44.969677,35.921318 
	C44.969677,35.921318 45.038612,35.464886 45.375107,35.182648 
	C46.126556,34.227226 46.541508,33.554035 46.956459,32.880844 
	C46.956455,32.880844 47.013519,32.444309 47.351402,32.174362 
	C48.101498,31.234327 48.513706,30.564236 48.925919,29.894146 
	C48.925919,29.894146 48.992054,29.939436 49.196983,29.846361 
	C49.591000,29.465015 49.780083,29.176743 49.969170,28.888472 
	C50.460571,28.322250 50.951969,27.756031 52.059856,27.060368 
	C55.769634,24.654886 58.167709,25.291916 60.057606,28.582132 
	C60.404007,29.185202 61.195465,29.532635 61.842243,30.334976 
	C61.862366,31.124659 61.821732,31.577435 61.647659,32.119843 
	C61.328327,32.530048 61.413486,32.782101 61.840187,33.350193 
	C61.854954,34.510876 61.799236,35.286987 61.535225,36.289345 
	C61.466564,37.656399 61.606201,38.797211 61.828102,40.343754 
	C61.866928,41.848537 61.823498,42.947590 61.545265,44.270119 
	C60.911114,46.056896 58.268684,47.869381 61.942440,49.343941 
	C62.769421,51.776913 63.464474,53.860786 63.862732,56.162682 
	C63.507854,57.486877 63.099339,58.720406 63.447655,59.678894 
	C66.018898,66.754440 71.075409,71.781013 77.328957,75.647331 
	C87.436485,81.896416 97.604050,88.049377 107.789093,94.171684 
	C112.815384,97.193016 117.761993,100.431465 123.057915,102.899506 
	C130.689331,106.455940 137.662216,110.505913 142.172455,118.015266 
	C143.039261,119.458435 145.358871,120.029015 147.000183,121.377640 
	C146.989456,122.504524 146.986816,123.255913 146.564621,124.006653 
	C143.241669,124.224312 140.242737,125.015366 137.453369,124.550095 
	C130.034683,123.312630 125.620384,124.975533 121.125481,131.205414 
	C120.040352,132.709396 118.337242,133.767471 116.918312,135.030609 
z"/>
<path fill="#B1946D" opacity="1.000000" stroke="none" 
	d="
M188.093643,174.075592 
	C187.505417,188.272812 180.128891,198.359940 168.751999,206.026794 
	C168.342743,206.302597 167.989273,206.692978 167.546616,206.881683 
	C165.968002,207.554565 164.362061,208.163315 162.766464,208.796341 
	C163.185455,207.107529 163.604446,205.418732 164.452545,203.284882 
	C165.563171,201.403046 166.789337,199.982605 166.833008,198.526688 
	C167.035568,191.775818 167.029617,185.011200 166.808258,178.261017 
	C166.759918,176.787537 165.522583,175.353058 164.794174,173.798172 
	C164.755508,173.695740 164.934280,173.569305 164.923447,173.195251 
	C164.560501,172.221405 164.208389,171.621628 163.681625,171.036469 
	C163.506958,171.051117 163.158463,171.089264 163.158463,171.089264 
	C159.020584,165.790695 154.882706,160.492126 150.579727,154.732452 
	C150.968979,152.564529 151.523331,150.857712 152.340012,148.842712 
	C152.396637,142.414398 152.190918,136.294266 152.000305,129.810516 
	C151.255920,125.675346 150.496460,121.903786 150.035583,118.013588 
	C154.438721,120.057434 158.617081,122.095657 162.600143,124.462570 
	C163.710281,125.122253 164.242950,126.753731 165.026520,128.353958 
	C165.694809,131.983261 166.021729,135.326752 167.130157,138.387177 
	C169.803360,145.767990 170.955429,154.034988 177.801117,159.234314 
	C181.030716,161.687210 184.548035,163.761276 187.946426,166.397690 
	C188.003128,169.217468 188.048386,171.646530 188.093643,174.075592 
z"/>
<path fill="#72A9AF" opacity="1.000000" stroke="none" 
	d="
M100.111328,171.930603 
	C111.152016,174.971527 121.871651,174.530151 132.862000,168.987549 
	C135.668549,170.752243 137.733322,172.508804 139.852615,174.657166 
	C140.490921,179.693390 141.074707,184.337784 141.250809,188.988846 
	C129.980316,189.663666 119.125473,190.577805 108.252434,190.929199 
	C97.860115,191.265045 87.389572,190.696548 79.629517,196.013412 
	C74.582108,194.412430 70.788567,193.209152 66.648239,191.969360 
	C61.129566,187.359070 55.795578,182.951660 50.856361,178.139099 
	C48.498184,175.841385 46.889652,172.774323 45.292084,170.070709 
	C46.470833,170.601074 47.544186,170.933533 48.087425,171.661560 
	C51.546097,176.296707 56.184715,177.479370 61.714931,177.046188 
	C72.258247,176.220322 82.836563,175.819962 93.368004,174.880402 
	C95.685059,174.673706 97.867104,172.953720 100.111328,171.930603 
z"/>
<path fill="#74B3B8" opacity="1.000000" stroke="none" 
	d="
M40.876579,162.041046 
	C34.499115,155.026321 32.810699,140.342361 37.620808,133.725922 
	C41.017139,129.054169 49.489830,126.310951 54.946468,128.477417 
	C58.860329,130.031357 62.651779,131.966187 66.297363,134.077301 
	C67.340187,134.681183 67.808739,136.443085 68.327843,137.758026 
	C71.732994,146.383636 75.977097,154.492279 82.647339,161.097565 
	C83.555405,161.996765 84.783607,162.572693 85.627678,163.626556 
	C83.609314,164.241882 81.826859,164.528976 79.781662,164.858368 
	C77.791428,160.342346 73.841850,159.696304 69.486687,160.006195 
	C65.533813,160.287460 61.402573,161.493011 57.678963,160.715500 
	C52.786160,159.693848 48.854874,160.040665 45.695969,163.574738 
	C43.889141,162.999756 42.382862,162.520401 40.876579,162.041046 
z"/>
<path fill="#C0A379" opacity="1.000000" stroke="none" 
	d="
M166.029739,91.965950 
	C161.818634,92.165520 158.607422,90.196960 157.022598,86.545647 
	C152.328018,75.729637 146.102127,66.329582 135.140991,60.135918 
	C134.990601,59.375793 134.998444,59.187332 135.384827,59.005177 
	C137.307724,59.279255 138.852081,59.547020 141.802017,60.058498 
	C139.048676,55.434719 136.969681,51.833580 134.782959,48.299072 
	C132.079025,43.928543 127.825607,41.160084 124.229485,37.770195 
	C119.186516,33.016430 116.440598,25.643642 113.309433,19.105095 
	C111.047684,14.382077 115.103554,10.864143 117.386368,7.006619 
	C119.512627,7.348088 121.251221,7.696965 122.947113,8.416331 
	C119.777138,12.168266 121.475815,15.976951 122.136253,19.573757 
	C123.040558,24.498699 126.141464,26.241304 131.394836,25.029739 
	C134.174484,25.734449 136.583359,26.396765 138.987518,27.444311 
	C139.095566,30.724594 138.483871,33.902523 139.479645,36.452797 
	C141.269760,41.037453 143.528107,45.618191 146.472183,49.538719 
	C154.283020,59.940182 162.652908,69.920334 170.577042,80.239601 
	C172.019669,82.118286 172.405838,84.808235 173.274918,87.110985 
	C170.157928,88.811638 165.138596,86.208908 166.062698,91.938019 
	C166.052170,91.948235 166.029739,91.965950 166.029739,91.965950 
z"/>
<path fill="#70A3A9" opacity="1.000000" stroke="none" 
	d="
M66.995026,192.005875 
	C70.788567,193.209152 74.582108,194.412430 79.629517,196.013412 
	C87.389572,190.696548 97.860115,191.265045 108.252434,190.929199 
	C119.125473,190.577805 129.980316,189.663666 141.308655,189.372391 
	C139.857971,194.864517 137.941757,199.979767 136.025543,205.095001 
	C136.025543,205.095001 136.011917,205.022766 135.782806,205.004562 
	C135.376205,204.993607 135.198685,205.000839 134.658936,204.947052 
	C132.279648,203.926163 130.273148,202.178726 128.243561,202.151459 
	C121.679375,202.063324 115.102654,202.905853 108.538483,202.817383 
	C102.825882,202.740356 96.883598,207.661911 91.307648,202.129288 
	C90.735458,201.561523 89.112183,202.053070 87.936836,202.053070 
	C87.936836,203.265442 87.936836,204.215439 87.936836,205.165436 
	C82.834885,202.849716 77.732933,200.533997 72.259659,197.717361 
	C70.257233,195.479584 68.626129,193.742737 66.995026,192.005875 
z"/>
<path fill="#C7AA7E" opacity="1.000000" stroke="none" 
	d="
M183.732498,60.076042 
	C183.732498,60.076046 183.878036,60.542492 183.648621,60.899330 
	C183.395813,62.789684 182.736145,64.778625 183.454010,65.781570 
	C187.596771,71.569382 189.242340,78.099571 189.687836,85.206284 
	C189.005127,86.979668 188.595291,88.537735 188.185455,90.095795 
	C188.185455,90.095795 188.174911,90.147995 187.790375,90.170898 
	C185.714966,90.786758 183.958984,91.248428 182.366165,92.038933 
	C181.751221,92.344116 181.506668,93.395630 181.093369,94.107132 
	C177.692383,94.381477 174.291397,94.655823 170.442902,94.569794 
	C169.995407,93.807037 169.995453,93.404655 170.444519,93.001053 
	C173.459915,92.999832 176.026321,92.999832 178.592712,92.999832 
	C178.339828,92.560356 178.086960,92.120880 177.834076,91.681404 
	C178.930984,89.960098 180.027878,88.238792 181.755493,85.527740 
	C180.923569,83.709724 180.016495,80.429131 178.143646,77.849754 
	C167.623062,63.360237 156.835495,49.064751 146.258957,34.615288 
	C145.382294,33.417614 145.396255,31.568027 145.353790,30.050060 
	C148.142197,31.069691 150.573227,32.060596 153.182785,33.367771 
	C155.561569,34.627090 158.364807,35.010014 159.854187,36.613396 
	C165.326004,42.504082 170.232346,48.917347 175.639542,54.872387 
	C177.282578,56.681889 179.855057,57.647472 182.137421,59.234550 
	C182.759491,59.671696 183.246002,59.873871 183.732498,60.076042 
z"/>
<path fill="#73AEB3" opacity="1.000000" stroke="none" 
	d="
M40.901611,162.419220 
	C42.382862,162.520401 43.889141,162.999756 45.695969,163.574738 
	C48.854874,160.040665 52.786160,159.693848 57.678963,160.715500 
	C61.402573,161.493011 65.533813,160.287460 69.486687,160.006195 
	C73.841850,159.696304 77.791428,160.342346 79.781662,164.858368 
	C81.826859,164.528976 83.609314,164.241882 85.805389,163.927078 
	C90.723671,166.369522 95.228333,168.839691 99.922165,171.620239 
	C97.867104,172.953720 95.685059,174.673706 93.368004,174.880402 
	C82.836563,175.819962 72.258247,176.220322 61.714931,177.046188 
	C56.184715,177.479370 51.546097,176.296707 48.087425,171.661560 
	C47.544186,170.933533 46.470833,170.601074 45.051331,170.059540 
	C44.460064,170.033386 43.978806,169.987930 43.978806,169.987930 
	C42.961418,167.591080 41.944027,165.194229 40.901611,162.419220 
z"/>
<path fill="#77B7BB" opacity="1.000000" stroke="none" 
	d="
M152.077682,149.150894 
	C151.523331,150.857712 150.968979,152.564529 150.283875,154.581482 
	C142.416748,150.391556 134.675171,145.900391 126.946434,141.387222 
	C123.704422,139.494080 120.489609,137.554352 117.090370,135.333206 
	C118.337242,133.767471 120.040352,132.709396 121.125481,131.205414 
	C125.620384,124.975533 130.034683,123.312630 137.453369,124.550095 
	C140.242737,125.015366 143.241669,124.224312 146.574203,124.372475 
	C147.995575,126.174141 148.987793,127.609352 149.984238,129.364777 
	C149.991913,130.113251 149.995346,130.541489 150.093048,131.192230 
	C150.371796,131.700027 150.629913,131.879272 150.972717,132.415283 
	C151.348419,138.302368 151.713058,143.726624 152.077682,149.150894 
z"/>
<path fill="#B99970" opacity="1.000000" stroke="none" 
	d="
M119.060776,54.104622 
	C115.026833,54.374748 110.945381,54.352917 106.972649,54.999252 
	C103.195877,55.613693 99.532745,56.926594 95.083183,57.916126 
	C91.949860,55.636047 89.553001,53.372231 87.156143,51.108414 
	C85.181831,42.686405 84.710670,34.240105 88.972664,26.431942 
	C90.685928,23.293152 93.849167,20.945810 96.814346,18.325378 
	C97.850716,18.608486 98.425209,18.804464 98.999710,19.419769 
	C99.284897,21.779900 99.248848,23.838720 99.911011,25.641014 
	C102.730568,33.315311 105.835144,40.885178 108.629028,48.568314 
	C109.085007,49.822231 108.502190,51.453896 108.431709,52.454006 
	C112.045074,53.015137 115.552925,53.559883 119.060776,54.104622 
z"/>
<path fill="#CEAF82" opacity="1.000000" stroke="none" 
	d="
M182.001831,58.999580 
	C179.855057,57.647472 177.282578,56.681889 175.639542,54.872387 
	C170.232346,48.917347 165.326004,42.504082 159.854187,36.613396 
	C158.364807,35.010014 155.561569,34.627090 153.187088,33.055946 
	C153.021500,32.014027 153.030136,31.600195 153.038757,31.186363 
	C155.140411,31.168932 157.242035,31.151499 159.851730,31.333260 
	C161.598312,30.395267 162.836853,29.258081 164.075378,28.120899 
	C164.236450,27.832262 164.397522,27.543621 165.140442,27.129642 
	C168.437759,25.974659 170.448975,26.628830 172.527863,28.838245 
	C174.374435,30.800756 176.998611,32.031601 179.279556,33.585400 
	C179.279556,33.585400 179.339279,33.732330 179.216095,34.170906 
	C181.423203,37.924568 183.515717,41.445911 186.157318,44.490921 
	C188.357391,47.026970 188.249969,48.943760 186.356140,51.503033 
	C184.647751,53.811733 183.433823,56.486336 182.001831,58.999580 
z"/>
<path fill="#6D9CA3" opacity="1.000000" stroke="none" 
	d="
M88.149529,205.468353 
	C87.936836,204.215439 87.936836,203.265442 87.936836,202.053070 
	C89.112183,202.053070 90.735458,201.561523 91.307648,202.129288 
	C96.883598,207.661911 102.825882,202.740356 108.538483,202.817383 
	C115.102654,202.905853 121.679375,202.063324 128.243561,202.151459 
	C130.273148,202.178726 132.279648,203.926163 134.681564,205.142761 
	C135.066422,205.399475 135.096848,205.792664 135.096848,205.792664 
	C132.609558,207.650146 130.290085,209.601089 130.507004,213.609619 
	C127.677170,213.402130 125.244629,212.131805 122.937241,212.328629 
	C115.874817,212.931076 108.843430,213.988525 101.834412,215.088455 
	C98.177452,215.662369 98.595825,218.338882 99.647552,220.820648 
	C100.127884,221.954086 101.201035,222.836319 102.005310,223.832489 
	C96.975853,223.737640 96.282349,222.639206 95.960396,214.257965 
	C95.723503,208.091064 94.493347,206.717056 88.149529,205.468353 
z"/>
<path fill="#85C3C6" opacity="1.000000" stroke="none" 
	d="
M147.008270,121.002144 
	C145.358871,120.029015 143.039261,119.458435 142.172455,118.015266 
	C137.662216,110.505913 130.689331,106.455940 123.057915,102.899506 
	C117.761993,100.431465 112.815384,97.193016 107.789093,94.171684 
	C97.604050,88.049377 87.436485,81.896416 77.328957,75.647331 
	C71.075409,71.781013 66.018898,66.754440 63.447655,59.678894 
	C63.099339,58.720406 63.507854,57.486877 64.116592,56.377773 
	C66.727318,59.229969 68.787384,62.085098 70.847458,64.940224 
	C87.241402,75.085945 103.703880,85.123268 119.998856,95.425522 
	C127.550842,100.200150 134.776627,105.490715 142.538635,110.724144 
	C142.926971,110.900909 143.111404,111.030067 143.028259,111.392990 
	C144.342148,114.799828 145.739166,117.843750 147.103729,120.915749 
	C147.071259,120.943825 147.008270,121.002144 147.008270,121.002144 
z"/>
<path fill="#6A959B" opacity="1.000000" stroke="none" 
	d="
M102.377235,224.045380 
	C101.201035,222.836319 100.127884,221.954086 99.647552,220.820648 
	C98.595825,218.338882 98.177452,215.662369 101.834412,215.088455 
	C108.843430,213.988525 115.874817,212.931076 122.937241,212.328629 
	C125.244629,212.131805 127.677170,213.402130 130.440613,214.004456 
	C130.519455,216.582352 130.326569,219.179871 129.832565,221.718826 
	C129.676895,222.518906 128.732910,223.766571 128.117966,223.785675 
	C119.664948,224.048004 111.206367,224.131134 102.377235,224.045380 
z"/>
<path fill="#BC9F74" opacity="1.000000" stroke="none" 
	d="
M98.999695,19.000446 
	C98.425209,18.804464 97.850716,18.608486 97.109421,18.149069 
	C97.292519,14.865823 97.642426,11.846014 98.442276,8.237972 
	C102.930656,7.423062 106.969078,7.196384 110.962692,7.359407 
	C110.489845,12.563106 108.460228,17.962194 109.961426,22.071392 
	C113.261009,31.103308 118.375847,39.468117 122.677536,48.141026 
	C123.606117,50.013195 124.230377,52.036304 124.771667,54.102692 
	C124.268860,54.421787 124.082825,54.692448 123.990417,55.027473 
	C123.412636,54.896229 122.834862,54.764980 122.088249,54.013153 
	C121.343102,52.630981 120.928429,51.505886 120.164513,51.166199 
	C114.798912,48.780270 112.718315,44.524586 111.262634,38.957024 
	C109.291359,31.417461 105.918198,24.244436 102.999496,16.525587 
	C100.929138,17.806614 99.964417,18.403532 98.999695,19.000446 
z"/>
<path fill="#6A9AA0" opacity="1.000000" stroke="none" 
	d="
M43.613174,169.981995 
	C43.978806,169.987930 44.460064,170.033386 44.700813,170.044556 
	C46.889652,172.774323 48.498184,175.841385 50.856361,178.139099 
	C55.795578,182.951660 61.129566,187.359070 66.648239,191.969360 
	C68.626129,193.742737 70.257233,195.479584 71.941055,197.547043 
	C70.963684,197.924988 69.933586,197.972321 68.113403,198.010986 
	C64.662033,197.208694 61.647289,196.964203 59.404552,195.520462 
	C52.141998,190.845261 45.131134,185.773788 38.121349,180.719025 
	C37.385002,180.188049 37.298790,178.755478 36.910942,177.741211 
	C39.023144,175.152832 41.135342,172.564438 43.613174,169.981995 
z"/>
<path fill="#669097" opacity="1.000000" stroke="none" 
	d="
M36.593605,177.928009 
	C37.298790,178.755478 37.385002,180.188049 38.121349,180.719025 
	C45.131134,185.773788 52.141998,190.845261 59.404552,195.520462 
	C61.647289,196.964203 64.662033,197.208694 67.725037,198.021805 
	C65.948990,200.005341 63.885548,202.118866 61.563709,203.894516 
	C58.829643,205.985397 56.239468,206.101501 53.624424,203.179153 
	C48.410439,197.352402 42.999851,191.695831 37.529896,186.106537 
	C35.100140,183.623749 34.592609,181.109375 36.593605,177.928009 
z"/>
<path fill="#131A26" opacity="1.000000" stroke="none" 
	d="
M70.898094,64.567795 
	C68.787384,62.085098 66.727318,59.229969 64.413391,56.159752 
	C63.464474,53.860786 62.769421,51.776913 62.002537,48.934078 
	C61.880497,46.798962 61.830284,45.422798 61.780067,44.046638 
	C61.823498,42.947590 61.866928,41.848537 61.905853,39.960773 
	C61.848743,38.135738 61.796131,37.099422 61.743523,36.063103 
	C61.799236,35.286987 61.854954,34.510876 61.906799,33.117111 
	C61.902931,32.499458 61.781097,32.030212 61.781097,32.030212 
	C61.821732,31.577435 61.862366,31.124659 61.915382,29.958084 
	C62.314278,28.413586 62.700787,27.582886 63.087296,26.752184 
	C64.336151,27.931347 65.584999,29.110510 66.944138,31.014471 
	C67.411797,34.806465 67.438057,37.961475 68.221489,40.915684 
	C68.975578,43.759209 70.512604,46.395096 71.705635,49.122215 
	C71.705635,49.122215 71.877777,49.531509 71.990250,50.006592 
	C72.390633,50.663090 72.678535,50.844505 72.966446,51.025921 
	C72.966446,51.025921 73.001030,51.000835 73.025330,51.273499 
	C73.329025,51.717915 73.608406,51.889671 73.887787,52.061424 
	C73.887787,52.061428 73.977432,52.019474 73.923462,52.349831 
	C74.189148,53.132946 74.508804,53.585709 74.828468,54.038475 
	C76.837776,55.297112 78.847084,56.555748 81.360817,58.130352 
	C77.730003,60.245289 74.339363,62.220322 70.898094,64.567795 
z"/>
<path fill="#BA9D73" opacity="1.000000" stroke="none" 
	d="
M98.999710,19.419773 
	C99.964417,18.403532 100.929138,17.806614 102.999496,16.525587 
	C105.918198,24.244436 109.291359,31.417461 111.262634,38.957024 
	C112.718315,44.524586 114.798912,48.780270 120.164513,51.166199 
	C120.928429,51.505886 121.343102,52.630981 121.940582,53.751972 
	C121.235825,54.082703 120.509911,54.054031 119.422379,54.064991 
	C115.552925,53.559883 112.045074,53.015137 108.431709,52.454006 
	C108.502190,51.453896 109.085007,49.822231 108.629028,48.568314 
	C105.835144,40.885178 102.730568,33.315311 99.911011,25.641014 
	C99.248848,23.838720 99.284897,21.779900 98.999710,19.419773 
z"/>
<path fill="#35585F" opacity="1.000000" stroke="none" 
	d="
M136.413147,205.056412 
	C137.941757,199.979767 139.857971,194.864517 141.716339,189.365738 
	C141.074707,184.337784 140.490921,179.693390 140.041046,174.310028 
	C140.792664,171.679688 141.410385,169.788315 142.028122,167.896912 
	C144.107742,168.597473 146.187363,169.298035 148.633575,170.517914 
	C148.731567,174.316895 148.611359,177.616959 148.163834,180.871994 
	C147.201599,187.870544 146.070786,194.845901 145.008972,201.830750 
	C142.272888,202.893097 139.536819,203.955460 136.413147,205.056412 
z"/>
<path fill="#171F29" opacity="1.000000" stroke="none" 
	d="
M164.934280,173.569305 
	C164.934280,173.569305 164.755508,173.695740 164.813034,174.265366 
	C164.897552,183.199768 164.924545,191.564560 164.951538,199.929337 
	C163.539932,199.284897 162.128342,198.640472 160.294830,197.525269 
	C159.584244,194.611298 159.485809,192.126480 158.962402,189.734650 
	C158.170273,186.114792 157.082260,182.559677 156.094055,178.590759 
	C156.083984,177.432083 156.099838,176.659698 156.115707,175.887329 
	C158.428650,174.544388 160.741608,173.201447 163.106506,171.473892 
	C163.158463,171.089264 163.506958,171.051117 163.723022,171.392639 
	C164.270813,172.345886 164.602539,172.957596 164.934280,173.569305 
z"/>
<path fill="#2D4E57" opacity="1.000000" stroke="none" 
	d="
M156.100037,175.921936 
	C156.099838,176.659698 156.083984,177.432083 155.748688,178.755280 
	C154.628235,180.865738 153.329651,182.361816 153.120712,183.997116 
	C152.523071,188.674835 152.367798,193.409073 152.038559,198.121094 
	C149.925903,199.336761 147.813263,200.552444 145.354797,201.799438 
	C146.070786,194.845901 147.201599,187.870544 148.163834,180.871994 
	C148.611359,177.616959 148.731567,174.316895 149.003693,170.590271 
	C150.805496,171.713715 152.603760,173.284134 154.843292,175.211395 
	C155.545670,175.766724 155.837570,175.895325 156.160278,175.954041 
	C156.160278,175.954041 156.084381,175.956558 156.100037,175.921936 
z"/>
<path fill="#C8AC84" opacity="1.000000" stroke="none" 
	d="
M165.040543,127.939407 
	C164.242950,126.753731 163.710281,125.122253 162.600143,124.462570 
	C158.617081,122.095657 154.438721,120.057434 149.820389,117.764946 
	C147.241531,115.433311 145.176468,113.231689 143.111404,111.030067 
	C143.111404,111.030067 142.926971,110.900909 142.840958,110.828156 
	C143.526642,110.328110 144.665146,109.330116 145.016876,109.556206 
	C156.668076,117.045128 168.243958,124.651199 179.921814,132.915619 
	C179.665741,134.734634 179.318771,135.878052 178.674744,136.873169 
	C174.164047,133.444077 171.458130,127.874390 165.040543,127.939407 
z"/>
<path fill="#DEC092" opacity="1.000000" stroke="none" 
	d="
M111.007500,6.969707 
	C106.969078,7.196384 102.930656,7.423062 98.537201,7.837873 
	C98.043007,6.703813 96.395103,4.798349 99.500580,4.755232 
	C107.585686,4.642980 115.693016,4.082028 123.748299,4.510971 
	C130.322678,4.861055 130.773972,5.956020 130.991776,12.397999 
	C131.046295,14.010213 131.427505,15.611382 131.457184,17.608765 
	C130.834854,17.999895 130.413879,17.999889 129.710480,17.739738 
	C128.803894,14.469080 128.179733,11.458563 127.472191,8.045843 
	C125.875916,8.045843 124.432869,8.045843 122.989815,8.045843 
	C121.251221,7.696965 119.512627,7.348088 116.958511,6.994901 
	C114.431152,6.983629 112.719330,6.976668 111.007500,6.969707 
z"/>
<path fill="#D8BA90" opacity="1.000000" stroke="none" 
	d="
M178.971802,137.021484 
	C179.318771,135.878052 179.665741,134.734634 180.052689,133.226822 
	C190.531921,143.925339 190.474518,157.663101 189.878845,171.514359 
	C189.847763,172.237137 189.146896,172.931107 188.425751,173.857056 
	C188.048386,171.646530 188.003128,169.217468 187.973267,165.946594 
	C188.413300,154.642303 185.127731,145.371094 178.971802,137.021484 
z"/>
<path fill="#1F414B" opacity="1.000000" stroke="none" 
	d="
M152.421021,198.068512 
	C152.367798,193.409073 152.523071,188.674835 153.120712,183.997116 
	C153.329651,182.361816 154.628235,180.865738 155.774597,179.141571 
	C157.082260,182.559677 158.170273,186.114792 158.962402,189.734650 
	C159.485809,192.126480 159.584244,194.611298 159.946320,197.455551 
	C157.614304,197.909714 155.208878,197.962814 152.421021,198.068512 
z"/>
<path fill="#7EBBC2" opacity="1.000000" stroke="none" 
	d="
M63.288666,26.447155 
	C62.700787,27.582886 62.314278,28.413586 61.854630,29.621178 
	C61.195465,29.532635 60.404007,29.185202 60.057606,28.582132 
	C58.167709,25.291916 55.769634,24.654886 52.327065,26.961136 
	C52.662731,25.418612 52.915604,23.263355 54.109989,22.377455 
	C58.480202,19.135965 63.163948,16.317186 68.106133,13.093619 
	C66.407082,17.896393 64.948563,22.019258 63.288666,26.447155 
z"/>
<path fill="#DEC093" opacity="1.000000" stroke="none" 
	d="
M182.137405,59.234550 
	C183.433823,56.486336 184.647751,53.811733 186.356140,51.503033 
	C188.249969,48.943760 188.357391,47.026970 186.157318,44.490921 
	C183.515717,41.445911 181.423203,37.924568 179.175079,34.238777 
	C182.744995,36.938091 186.286545,39.949665 189.703812,43.096226 
	C192.543732,45.711197 192.070496,48.265919 189.646408,51.098389 
	C187.484314,53.624699 185.825165,56.581413 183.838287,59.712120 
	C183.246002,59.873871 182.759491,59.671696 182.137405,59.234550 
z"/>
<path fill="#DEC093" opacity="1.000000" stroke="none" 
	d="
M189.960709,84.990967 
	C189.242340,78.099571 187.596771,71.569382 183.454010,65.781570 
	C182.736145,64.778625 183.395813,62.789684 183.748062,61.122498 
	C187.000443,68.420113 189.923965,75.851402 192.630936,83.792526 
	C192.205231,84.512039 192.078018,84.763245 192.032745,85.055992 
	C192.032745,85.055992 192.014496,84.994530 191.685486,85.003952 
	C190.891235,85.005913 190.425964,84.998444 189.960709,84.990967 
z"/>
<path fill="#735F48" opacity="1.000000" stroke="none" 
	d="
M87.103302,51.515442 
	C89.553001,53.372231 91.949860,55.636047 94.700226,57.949196 
	C91.824692,60.894310 88.276955,62.188400 84.115906,60.070957 
	C83.371162,59.691978 82.740433,59.088940 82.057060,58.589355 
	C82.678825,58.046883 83.224937,57.187160 83.935646,57.017704 
	C86.778122,56.339947 87.340775,54.429729 87.103302,51.515442 
z"/>
<path fill="#EACC9C" opacity="1.000000" stroke="none" 
	d="
M179.276855,33.239738 
	C176.998611,32.031601 174.374435,30.800756 172.527863,28.838245 
	C170.448975,26.628830 168.437759,25.974659 165.356750,27.000702 
	C167.421677,22.950966 170.285782,22.420977 173.524277,26.049524 
	C175.507523,28.271601 177.361908,30.608658 179.276855,33.239738 
z"/>
<path fill="#E5C496" opacity="1.000000" stroke="none" 
	d="
M129.992920,17.999882 
	C130.413879,17.999889 130.834854,17.999895 131.570724,17.996719 
	C132.005768,21.275021 133.474396,23.042187 136.990356,23.060867 
	C138.549301,23.069149 140.104568,23.769205 141.771423,24.750172 
	C141.580978,25.922249 141.280640,26.499397 140.649353,27.058979 
	C139.876358,27.047302 139.434280,27.053192 138.992218,27.059082 
	C136.583359,26.396765 134.174484,25.734449 131.237091,24.671810 
	C130.470001,22.180952 130.231461,20.090418 129.992920,17.999882 
z"/>
<path fill="#BC9F7E" opacity="1.000000" stroke="none" 
	d="
M164.891693,200.255127 
	C164.924545,191.564560 164.897552,183.199768 164.851700,174.367798 
	C165.522583,175.353058 166.759918,176.787537 166.808258,178.261017 
	C167.029617,185.011200 167.035568,191.775818 166.833008,198.526688 
	C166.789337,199.982605 165.563171,201.403046 164.522949,202.929535 
	C164.386765,202.206467 164.609314,201.393692 164.891693,200.255127 
z"/>
<path fill="#E3C290" opacity="1.000000" stroke="none" 
	d="
M140.980286,27.076546 
	C141.280640,26.499397 141.580978,25.922249 142.010925,25.043205 
	C145.567795,26.775095 148.995071,28.808878 152.730545,31.014511 
	C153.030136,31.600195 153.021500,32.014027 153.008560,32.739677 
	C150.573227,32.060596 148.142197,31.069691 145.061844,29.916576 
	C143.268448,28.861763 142.124359,27.969154 140.980286,27.076546 
z"/>
<path fill="#3D6168" opacity="1.000000" stroke="none" 
	d="
M141.865234,167.575378 
	C141.410385,169.788315 140.792664,171.679688 139.986511,173.918213 
	C137.733322,172.508804 135.668549,170.752243 133.234039,168.997650 
	C135.547287,167.086060 138.145645,164.744110 141.865234,167.575378 
z"/>
<path fill="#594F44" opacity="1.000000" stroke="none" 
	d="
M71.786499,48.719955 
	C70.512604,46.395096 68.975578,43.759209 68.221489,40.915684 
	C67.438057,37.961475 67.411797,34.806465 67.071732,31.310793 
	C68.369789,35.616730 69.647049,40.352081 70.933876,45.084839 
	C71.228127,46.167057 71.555328,47.240314 71.786499,48.719955 
z"/>
<path fill="#C4A77F" opacity="1.000000" stroke="none" 
	d="
M124.185776,55.334454 
	C124.082825,54.692448 124.268860,54.421787 125.157722,54.106369 
	C128.846710,55.664452 131.926498,57.331661 135.006287,58.998867 
	C134.998444,59.187332 134.990601,59.375793 134.962189,59.846603 
	C131.421448,58.633110 127.901299,57.137272 124.185776,55.334454 
z"/>
<path fill="#7EBBC2" opacity="1.000000" stroke="none" 
	d="
M41.580803,42.047726 
	C41.240097,44.877899 40.558075,47.849915 39.518982,50.908875 
	C39.854431,48.060406 40.546955,45.124985 41.580803,42.047726 
z"/>
<path fill="#DCBF93" opacity="1.000000" stroke="none" 
	d="
M181.463791,94.076569 
	C181.506668,93.395630 181.751221,92.344116 182.366165,92.038933 
	C183.958984,91.248428 185.714966,90.786758 187.779572,90.195244 
	C186.046967,91.479782 183.940582,92.762894 181.463791,94.076569 
z"/>
<path fill="#EACC9C" opacity="1.000000" stroke="none" 
	d="
M163.706360,28.069153 
	C162.836853,29.258081 161.598312,30.395267 160.177673,31.285902 
	C161.109482,30.032040 162.223404,29.024725 163.706360,28.069153 
z"/>
<path fill="#DCBF93" opacity="1.000000" stroke="none" 
	d="
M189.687836,85.206284 
	C190.425964,84.998444 190.891235,85.005913 191.705200,85.029648 
	C190.950851,86.620560 189.847809,88.195206 188.465103,89.932823 
	C188.595291,88.537735 189.005127,86.979668 189.687836,85.206284 
z"/>
<path fill="#7EBBC2" opacity="1.000000" stroke="none" 
	d="
M44.659996,36.079590 
	C44.190155,37.904076 43.410629,39.886837 42.259872,41.896011 
	C42.709198,40.027569 43.529758,38.132717 44.659996,36.079590 
z"/>
<path fill="#C0A379" opacity="1.000000" stroke="none" 
	d="
M169.995499,93.002266 
	C169.995453,93.404655 169.995407,93.807037 169.993759,94.510651 
	C168.745026,94.064590 167.497894,93.317314 166.140259,92.267990 
	C166.029739,91.965950 166.052170,91.948235 166.405396,91.965271 
	C167.837585,92.322289 168.916550,92.662277 169.995499,93.002266 
z"/>
<path fill="#7EBBC2" opacity="1.000000" stroke="none" 
	d="
M48.564850,29.909180 
	C48.513706,30.564236 48.101498,31.234327 47.366474,31.954758 
	C47.430370,31.311468 47.817074,30.617842 48.564850,29.909180 
z"/>
<path fill="#7EBBC2" opacity="1.000000" stroke="none" 
	d="
M46.595142,32.905159 
	C46.541508,33.554035 46.126556,34.227226 45.389381,34.952286 
	C45.456047,34.312599 45.844936,33.621040 46.595142,32.905159 
z"/>
<path fill="#594F44" opacity="1.000000" stroke="none" 
	d="
M74.887527,53.727314 
	C74.508804,53.585709 74.189148,53.132946 73.896759,52.391495 
	C74.264877,52.540588 74.605728,52.978371 74.887527,53.727314 
z"/>
<path fill="#594F44" opacity="1.000000" stroke="none" 
	d="
M72.928917,50.761120 
	C72.678535,50.844505 72.390633,50.663090 72.055862,50.218689 
	C72.303131,50.135906 72.597260,50.316113 72.928917,50.761120 
z"/>
<path fill="#171F29" opacity="1.000000" stroke="none" 
	d="
M156.058716,175.708374 
	C155.837570,175.895325 155.545670,175.766724 155.166580,175.358841 
	C155.351456,175.253876 155.654312,175.358292 156.058716,175.708374 
z"/>
<path fill="#594F44" opacity="1.000000" stroke="none" 
	d="
M73.875046,51.795368 
	C73.608406,51.889671 73.329025,51.717915 73.012161,51.290596 
	C73.270561,51.199795 73.566437,51.364552 73.875046,51.795368 
z"/>
<path fill="#7EBBC2" opacity="1.000000" stroke="none" 
	d="
M49.727100,28.991623 
	C49.780083,29.176743 49.591000,29.465015 49.157509,29.853291 
	C49.103745,29.667120 49.294388,29.380945 49.727100,28.991623 
z"/>
<path fill="#DCBF93" opacity="1.000000" stroke="none" 
	d="
M192.244446,84.962814 
	C192.078018,84.763245 192.205231,84.512039 192.589859,84.183495 
	C192.863831,84.410316 192.760773,84.678650 192.244446,84.962814 
z"/>
<path fill="#35585F" opacity="1.000000" stroke="none" 
	d="
M135.333130,205.796783 
	C135.096848,205.792664 135.066422,205.399475 135.043793,205.203781 
	C135.198685,205.000839 135.376205,204.993607 135.819504,205.006805 
	C136.012039,205.350952 135.840073,205.608841 135.333130,205.796783 
z"/>
<path fill="#85C3C6" opacity="1.000000" stroke="none" 
	d="
M149.980011,129.044556 
	C148.987793,127.609352 147.995575,126.174141 146.993774,124.373116 
	C146.986816,123.255913 146.989456,122.504524 147.000183,121.377640 
	C147.008270,121.002144 147.071259,120.943825 147.405807,121.091156 
	C148.569672,123.295715 149.398987,125.352936 150.156738,127.817314 
	C150.050095,128.497849 150.015045,128.771210 149.980011,129.044556 
z"/>
<path fill="#7EBBC2" opacity="1.000000" stroke="none" 
	d="
M61.545265,44.270119 
	C61.830284,45.422798 61.880497,46.798962 61.870613,48.584984 
	C58.268684,47.869381 60.911114,46.056896 61.545265,44.270119 
z"/>
<path fill="#7EBBC2" opacity="1.000000" stroke="none" 
	d="
M61.535225,36.289345 
	C61.796131,37.099422 61.848743,38.135738 61.823597,39.555038 
	C61.606201,38.797211 61.466564,37.656399 61.535225,36.289345 
z"/>
<path fill="#7EBBC2" opacity="1.000000" stroke="none" 
	d="
M61.647659,32.119843 
	C61.781097,32.030212 61.902931,32.499458 61.836315,32.732544 
	C61.413486,32.782101 61.328327,32.530048 61.647659,32.119843 
z"/>
<path fill="#B69970" opacity="1.000000" stroke="none" 
	d="
M178.674744,136.873169 
	C185.127731,145.371094 188.413300,154.642303 187.961823,165.555878 
	C184.548035,163.761276 181.030716,161.687210 177.801117,159.234314 
	C170.955429,154.034988 169.803360,145.767990 167.130157,138.387177 
	C166.021729,135.326752 165.694809,131.983261 165.026520,128.353958 
	C171.458130,127.874390 174.164047,133.444077 178.674744,136.873169 
z"/>
<path fill="#272E32" opacity="1.000000" stroke="none" 
	d="
M150.228317,127.410156 
	C149.398987,125.352936 148.569672,123.295715 147.438263,121.063080 
	C145.739166,117.843750 144.342148,114.799828 143.028259,111.392990 
	C145.176468,113.231689 147.241531,115.433311 149.521790,117.883575 
	C150.496460,121.903786 151.255920,125.675346 151.694580,129.656021 
	C150.991943,129.046799 150.610138,128.228485 150.228317,127.410156 
z"/>
<path fill="#89BAB7" opacity="1.000000" stroke="none" 
	d="
M150.156738,127.817314 
	C150.610138,128.228485 150.991943,129.046799 151.679474,130.019623 
	C152.190918,136.294266 152.396637,142.414398 152.340012,148.842712 
	C151.713058,143.726624 151.348419,138.302368 150.869858,132.202148 
	C150.563873,131.258667 150.311493,131.073181 149.998795,130.969727 
	C149.995346,130.541489 149.991913,130.113251 149.984238,129.364777 
	C150.015045,128.771210 150.050095,128.497849 150.156738,127.817314 
z"/>
<path fill="#BC9F7E" opacity="1.000000" stroke="none" 
	d="
M164.923447,173.195251 
	C164.602539,172.957596 164.270813,172.345886 163.897675,171.378006 
	C164.208389,171.621628 164.560501,172.221405 164.923447,173.195251 
z"/>
<path fill="#C4A77B" opacity="1.000000" stroke="none" 
	d="
M170.444519,93.001053 
	C168.916550,92.662277 167.837585,92.322289 166.415924,91.955048 
	C165.138596,86.208908 170.157928,88.811638 173.274918,87.110985 
	C172.405838,84.808235 172.019669,82.118286 170.577042,80.239601 
	C162.652908,69.920334 154.283020,59.940182 146.472183,49.538719 
	C143.528107,45.618191 141.269760,41.037453 139.479645,36.452797 
	C138.483871,33.902523 139.095566,30.724594 138.987518,27.444313 
	C139.434280,27.053192 139.876358,27.047302 140.649353,27.058979 
	C142.124359,27.969154 143.268448,28.861763 144.704468,29.887852 
	C145.396255,31.568027 145.382294,33.417614 146.258957,34.615288 
	C156.835495,49.064751 167.623062,63.360237 178.143646,77.849754 
	C180.016495,80.429131 180.923569,83.709724 181.755493,85.527740 
	C180.027878,88.238792 178.930984,89.960098 177.834076,91.681404 
	C178.086960,92.120880 178.339828,92.560356 178.592712,92.999832 
	C176.026321,92.999832 173.459915,92.999832 170.444519,93.001053 
z"/>
<path fill="#BFA278" opacity="1.000000" stroke="none" 
	d="
M135.384827,59.005177 
	C131.926498,57.331661 128.846710,55.664452 125.380859,53.993568 
	C124.230377,52.036304 123.606117,50.013195 122.677536,48.141026 
	C118.375847,39.468117 113.261009,31.103308 109.961426,22.071392 
	C108.460228,17.962194 110.489845,12.563106 110.962692,7.359407 
	C112.719330,6.976668 114.431152,6.983629 116.570839,7.002309 
	C115.103554,10.864143 111.047684,14.382077 113.309433,19.105095 
	C116.440598,25.643642 119.186516,33.016430 124.229485,37.770195 
	C127.825607,41.160084 132.079025,43.928543 134.782959,48.299072 
	C136.969681,51.833580 139.048676,55.434719 141.802017,60.058498 
	C138.852081,59.547020 137.307724,59.279255 135.384827,59.005177 
z"/>
<path fill="#C5A77B" opacity="1.000000" stroke="none" 
	d="
M129.710480,17.739738 
	C130.231461,20.090418 130.470001,22.180952 130.866302,24.629414 
	C126.141464,26.241304 123.040558,24.498699 122.136253,19.573757 
	C121.475815,15.976951 119.777138,12.168266 122.947113,8.416332 
	C124.432869,8.045843 125.875916,8.045843 127.472191,8.045843 
	C128.179733,11.458563 128.803894,14.469080 129.710480,17.739738 
z"/>
<path fill="#85C3C6" opacity="1.000000" stroke="none" 
	d="
M150.093048,131.192230 
	C150.311493,131.073181 150.563873,131.258667 150.858795,131.739334 
	C150.629913,131.879272 150.371796,131.700027 150.093048,131.192230 
z"/>
</svg>